STARTFONT 2.1
COMMENT
COMMENT Converted from OpenType font "ChivoMono-Bold.ttf" by "otf2bdf 3.0".
COMMENT
FONT -FreeType-chivo mono-Bold-R-Normal--10-70-100-100-P-52-ISO10646-1
SIZE 7 100 100
FONTBOUNDINGBOX 8 15 -1 -4
STARTPROPERTIES 19
FOUNDRY "FreeType"
FAMILY_NAME "chivo mono"
WEIGHT_NAME "Bold"
SLANT "R"
SETWIDTH_NAME "Normal"
ADD_STYLE_NAME ""
PIXEL_SIZE 10
POINT_SIZE 70
RESOLUTION_X 100
RESOLUTION_Y 100
SPACING "P"
AVERAGE_WIDTH 52
CHARSET_REGISTRY "ISO10646"
CHARSET_ENCODING "1"
FONT_ASCENT 9
FONT_DESCENT 2
COPYRIGHT "Copyright 2018 The Chivo Project Authors (https://github.com/Omnibus-Type/Chivo)"
_OTF_FONTFILE "ChivoMono-Bold.ttf"
_OTF_PSNAME "ChivoMono-Bold"
ENDPROPERTIES
CHARS 642
STARTCHAR 000D
ENCODING 13
SWIDTH 617 0
DWIDTH 6 0
BBX 0 0 0 0
BITMAP
ENDCHAR
STARTCHAR 0020
ENCODING 32
SWIDTH 617 0
DWIDTH 6 0
BBX 0 0 0 0
BITMAP
ENDCHAR
STARTCHAR 0021
ENCODING 33
SWIDTH 617 0
DWIDTH 6 0
BBX 2 7 2 0
BITMAP
C0
C0
C0
C0
80
C0
C0
ENDCHAR
STARTCHAR 0022
ENCODING 34
SWIDTH 617 0
DWIDTH 6 0
BBX 3 3 1 4
BITMAP
E0
E0
A0
ENDCHAR
STARTCHAR 0023
ENCODING 35
SWIDTH 617 0
DWIDTH 6 0
BBX 6 7 0 0
BITMAP
28
28
FC
48
F8
50
50
ENDCHAR
STARTCHAR 0024
ENCODING 36
SWIDTH 617 0
DWIDTH 6 0
BBX 5 8 0 -1
BITMAP
30
78
C0
78
08
C8
70
20
ENDCHAR
STARTCHAR 0025
ENCODING 37
SWIDTH 617 0
DWIDTH 6 0
BBX 6 7 0 0
BITMAP
44
A8
B0
C8
34
54
8C
ENDCHAR
STARTCHAR 0026
ENCODING 38
SWIDTH 617 0
DWIDTH 6 0
BBX 6 7 0 0
BITMAP
60
40
C8
7C
C8
C8
78
ENDCHAR
STARTCHAR 0027
ENCODING 39
SWIDTH 617 0
DWIDTH 6 0
BBX 2 3 2 4
BITMAP
C0
C0
80
ENDCHAR
STARTCHAR 0028
ENCODING 40
SWIDTH 617 0
DWIDTH 6 0
BBX 2 9 2 -2
BITMAP
40
40
80
80
80
80
80
40
40
ENDCHAR
STARTCHAR 0029
ENCODING 41
SWIDTH 617 0
DWIDTH 6 0
BBX 2 9 2 -2
BITMAP
80
80
C0
40
40
40
C0
80
80
ENDCHAR
STARTCHAR 002A
ENCODING 42
SWIDTH 617 0
DWIDTH 6 0
BBX 4 4 1 3
BITMAP
40
D0
60
F0
ENDCHAR
STARTCHAR 002B
ENCODING 43
SWIDTH 617 0
DWIDTH 6 0
BBX 5 5 0 0
BITMAP
20
20
F8
20
20
ENDCHAR
STARTCHAR 002C
ENCODING 44
SWIDTH 617 0
DWIDTH 6 0
BBX 2 4 2 -2
BITMAP
C0
C0
40
80
ENDCHAR
STARTCHAR 002D
ENCODING 45
SWIDTH 617 0
DWIDTH 6 0
BBX 2 1 2 2
BITMAP
C0
ENDCHAR
STARTCHAR 002E
ENCODING 46
SWIDTH 617 0
DWIDTH 6 0
BBX 2 2 2 0
BITMAP
C0
C0
ENDCHAR
STARTCHAR 002F
ENCODING 47
SWIDTH 617 0
DWIDTH 6 0
BBX 6 9 0 -2
BITMAP
04
08
18
10
20
20
40
40
80
ENDCHAR
STARTCHAR 0030
ENCODING 48
SWIDTH 617 0
DWIDTH 6 0
BBX 5 7 0 0
BITMAP
30
58
C8
C8
C8
48
78
ENDCHAR
STARTCHAR 0031
ENCODING 49
SWIDTH 617 0
DWIDTH 6 0
BBX 4 7 1 0
BITMAP
20
E0
60
60
60
60
F0
ENDCHAR
STARTCHAR 0032
ENCODING 50
SWIDTH 617 0
DWIDTH 6 0
BBX 5 7 0 0
BITMAP
30
78
C8
18
30
60
F8
ENDCHAR
STARTCHAR 0033
ENCODING 51
SWIDTH 617 0
DWIDTH 6 0
BBX 5 7 0 0
BITMAP
30
58
88
30
08
C8
78
ENDCHAR
STARTCHAR 0034
ENCODING 52
SWIDTH 617 0
DWIDTH 6 0
BBX 6 7 0 0
BITMAP
20
28
58
58
FC
18
18
ENDCHAR
STARTCHAR 0035
ENCODING 53
SWIDTH 617 0
DWIDTH 6 0
BBX 5 7 0 0
BITMAP
78
78
40
78
08
C8
78
ENDCHAR
STARTCHAR 0036
ENCODING 54
SWIDTH 617 0
DWIDTH 6 0
BBX 6 7 0 0
BITMAP
30
78
40
F8
CC
48
78
ENDCHAR
STARTCHAR 0037
ENCODING 55
SWIDTH 617 0
DWIDTH 6 0
BBX 4 7 1 0
BITMAP
F0
F0
20
60
60
40
C0
ENDCHAR
STARTCHAR 0038
ENCODING 56
SWIDTH 617 0
DWIDTH 6 0
BBX 5 7 0 0
BITMAP
30
48
48
70
48
C8
78
ENDCHAR
STARTCHAR 0039
ENCODING 57
SWIDTH 617 0
DWIDTH 6 0
BBX 5 7 0 0
BITMAP
30
58
C8
58
28
C8
78
ENDCHAR
STARTCHAR 003A
ENCODING 58
SWIDTH 617 0
DWIDTH 6 0
BBX 2 5 2 0
BITMAP
C0
C0
00
C0
C0
ENDCHAR
STARTCHAR 003B
ENCODING 59
SWIDTH 617 0
DWIDTH 6 0
BBX 2 7 2 -2
BITMAP
C0
C0
00
C0
C0
40
80
ENDCHAR
STARTCHAR 003C
ENCODING 60
SWIDTH 617 0
DWIDTH 6 0
BBX 5 5 0 0
BITMAP
08
70
C0
70
08
ENDCHAR
STARTCHAR 003D
ENCODING 61
SWIDTH 617 0
DWIDTH 6 0
BBX 5 3 0 1
BITMAP
F8
00
F8
ENDCHAR
STARTCHAR 003E
ENCODING 62
SWIDTH 617 0
DWIDTH 6 0
BBX 4 5 1 0
BITMAP
80
E0
10
70
80
ENDCHAR
STARTCHAR 003F
ENCODING 63
SWIDTH 617 0
DWIDTH 6 0
BBX 4 7 1 0
BITMAP
60
B0
90
30
60
60
60
ENDCHAR
STARTCHAR 0040
ENCODING 64
SWIDTH 617 0
DWIDTH 6 0
BBX 6 9 0 -2
BITMAP
30
48
B4
DC
BC
DC
FC
40
30
ENDCHAR
STARTCHAR 0041
ENCODING 65
SWIDTH 617 0
DWIDTH 6 0
BBX 6 7 0 0
BITMAP
30
30
78
58
48
F8
CC
ENDCHAR
STARTCHAR 0042
ENCODING 66
SWIDTH 617 0
DWIDTH 6 0
BBX 5 7 1 0
BITMAP
F0
B0
90
E0
90
98
F0
ENDCHAR
STARTCHAR 0043
ENCODING 67
SWIDTH 617 0
DWIDTH 6 0
BBX 5 7 0 0
BITMAP
30
78
C8
C0
C8
C8
78
ENDCHAR
STARTCHAR 0044
ENCODING 68
SWIDTH 617 0
DWIDTH 6 0
BBX 5 7 1 0
BITMAP
E0
F0
98
98
98
98
F0
ENDCHAR
STARTCHAR 0045
ENCODING 69
SWIDTH 617 0
DWIDTH 6 0
BBX 4 7 1 0
BITMAP
F0
F0
80
F0
80
80
F0
ENDCHAR
STARTCHAR 0046
ENCODING 70
SWIDTH 617 0
DWIDTH 6 0
BBX 4 7 1 0
BITMAP
F0
F0
80
F0
80
80
80
ENDCHAR
STARTCHAR 0047
ENCODING 71
SWIDTH 617 0
DWIDTH 6 0
BBX 6 7 0 0
BITMAP
30
78
CC
DC
CC
CC
74
ENDCHAR
STARTCHAR 0048
ENCODING 72
SWIDTH 617 0
DWIDTH 6 0
BBX 4 7 1 0
BITMAP
90
90
90
F0
90
90
90
ENDCHAR
STARTCHAR 0049
ENCODING 73
SWIDTH 617 0
DWIDTH 6 0
BBX 4 7 1 0
BITMAP
F0
F0
60
60
60
60
F0
ENDCHAR
STARTCHAR 004A
ENCODING 74
SWIDTH 617 0
DWIDTH 6 0
BBX 4 7 1 0
BITMAP
10
10
10
10
10
B0
F0
ENDCHAR
STARTCHAR 004B
ENCODING 75
SWIDTH 617 0
DWIDTH 6 0
BBX 5 7 1 0
BITMAP
98
B0
A0
E0
E0
B0
98
ENDCHAR
STARTCHAR 004C
ENCODING 76
SWIDTH 617 0
DWIDTH 6 0
BBX 4 7 1 0
BITMAP
80
80
80
80
80
80
F0
ENDCHAR
STARTCHAR 004D
ENCODING 77
SWIDTH 617 0
DWIDTH 6 0
BBX 5 7 0 0
BITMAP
C8
D8
F8
F8
F8
F8
E8
ENDCHAR
STARTCHAR 004E
ENCODING 78
SWIDTH 617 0
DWIDTH 6 0
BBX 4 7 1 0
BITMAP
90
D0
D0
F0
B0
B0
90
ENDCHAR
STARTCHAR 004F
ENCODING 79
SWIDTH 617 0
DWIDTH 6 0
BBX 6 7 0 0
BITMAP
30
78
CC
CC
CC
C8
78
ENDCHAR
STARTCHAR 0050
ENCODING 80
SWIDTH 617 0
DWIDTH 6 0
BBX 5 7 1 0
BITMAP
F0
F8
98
F0
80
80
80
ENDCHAR
STARTCHAR 0051
ENCODING 81
SWIDTH 617 0
DWIDTH 6 0
BBX 6 9 0 -2
BITMAP
30
78
CC
CC
CC
C8
78
34
08
ENDCHAR
STARTCHAR 0052
ENCODING 82
SWIDTH 617 0
DWIDTH 6 0
BBX 5 7 1 0
BITMAP
F0
F8
98
F0
B0
98
98
ENDCHAR
STARTCHAR 0053
ENCODING 83
SWIDTH 617 0
DWIDTH 6 0
BBX 6 7 0 0
BITMAP
30
D8
C4
78
1C
CC
78
ENDCHAR
STARTCHAR 0054
ENCODING 84
SWIDTH 617 0
DWIDTH 6 0
BBX 6 7 0 0
BITMAP
FC
FC
30
30
30
30
30
ENDCHAR
STARTCHAR 0055
ENCODING 85
SWIDTH 617 0
DWIDTH 6 0
BBX 5 7 0 0
BITMAP
C8
C8
C8
C8
C8
C8
78
ENDCHAR
STARTCHAR 0056
ENCODING 86
SWIDTH 617 0
DWIDTH 6 0
BBX 6 7 0 0
BITMAP
CC
C8
48
48
78
70
30
ENDCHAR
STARTCHAR 0057
ENCODING 87
SWIDTH 617 0
DWIDTH 6 0
BBX 6 7 0 0
BITMAP
B4
BC
FC
F8
F8
78
58
ENDCHAR
STARTCHAR 0058
ENCODING 88
SWIDTH 617 0
DWIDTH 6 0
BBX 6 7 0 0
BITMAP
CC
78
70
30
70
58
CC
ENDCHAR
STARTCHAR 0059
ENCODING 89
SWIDTH 617 0
DWIDTH 6 0
BBX 6 7 0 0
BITMAP
CC
48
78
30
30
30
30
ENDCHAR
STARTCHAR 005A
ENCODING 90
SWIDTH 617 0
DWIDTH 6 0
BBX 6 7 0 0
BITMAP
FC
F8
18
30
60
60
FC
ENDCHAR
STARTCHAR 005B
ENCODING 91
SWIDTH 617 0
DWIDTH 6 0
BBX 2 9 2 -2
BITMAP
C0
80
80
80
80
80
80
80
C0
ENDCHAR
STARTCHAR 005C
ENCODING 92
SWIDTH 617 0
DWIDTH 6 0
BBX 6 9 0 -2
BITMAP
80
40
40
20
20
10
18
08
04
ENDCHAR
STARTCHAR 005D
ENCODING 93
SWIDTH 617 0
DWIDTH 6 0
BBX 3 9 1 -2
BITMAP
E0
60
60
60
60
60
60
60
E0
ENDCHAR
STARTCHAR 005E
ENCODING 94
SWIDTH 617 0
DWIDTH 6 0
BBX 5 5 0 0
BITMAP
30
30
50
48
C8
ENDCHAR
STARTCHAR 005F
ENCODING 95
SWIDTH 617 0
DWIDTH 6 0
BBX 5 1 0 -1
BITMAP
F8
ENDCHAR
STARTCHAR 0060
ENCODING 96
SWIDTH 617 0
DWIDTH 6 0
BBX 2 1 2 6
BITMAP
C0
ENDCHAR
STARTCHAR 0061
ENCODING 97
SWIDTH 617 0
DWIDTH 6 0
BBX 6 5 0 0
BITMAP
78
48
78
D8
7C
ENDCHAR
STARTCHAR 0062
ENCODING 98
SWIDTH 617 0
DWIDTH 6 0
BBX 4 7 1 0
BITMAP
80
80
F0
90
90
90
F0
ENDCHAR
STARTCHAR 0063
ENCODING 99
SWIDTH 617 0
DWIDTH 6 0
BBX 5 5 0 0
BITMAP
78
48
C0
48
78
ENDCHAR
STARTCHAR 0064
ENCODING 100
SWIDTH 617 0
DWIDTH 6 0
BBX 5 7 0 0
BITMAP
08
08
78
C8
C8
C8
78
ENDCHAR
STARTCHAR 0065
ENCODING 101
SWIDTH 617 0
DWIDTH 6 0
BBX 5 5 0 0
BITMAP
78
48
F8
48
78
ENDCHAR
STARTCHAR 0066
ENCODING 102
SWIDTH 617 0
DWIDTH 6 0
BBX 4 7 1 0
BITMAP
70
60
F0
60
60
60
F0
ENDCHAR
STARTCHAR 0067
ENCODING 103
SWIDTH 617 0
DWIDTH 6 0
BBX 6 8 0 -2
BITMAP
0C
78
48
78
40
7C
CC
78
ENDCHAR
STARTCHAR 0068
ENCODING 104
SWIDTH 617 0
DWIDTH 6 0
BBX 4 7 1 0
BITMAP
80
80
F0
90
90
90
90
ENDCHAR
STARTCHAR 0069
ENCODING 105
SWIDTH 617 0
DWIDTH 6 0
BBX 4 7 1 0
BITMAP
20
00
E0
60
60
60
F0
ENDCHAR
STARTCHAR 006A
ENCODING 106
SWIDTH 617 0
DWIDTH 6 0
BBX 3 9 1 -2
BITMAP
20
00
E0
60
60
60
60
60
C0
ENDCHAR
STARTCHAR 006B
ENCODING 107
SWIDTH 617 0
DWIDTH 6 0
BBX 5 7 1 0
BITMAP
80
80
B8
A0
E0
F0
B8
ENDCHAR
STARTCHAR 006C
ENCODING 108
SWIDTH 617 0
DWIDTH 6 0
BBX 4 7 1 0
BITMAP
E0
60
60
60
60
60
F0
ENDCHAR
STARTCHAR 006D
ENCODING 109
SWIDTH 617 0
DWIDTH 6 0
BBX 5 5 0 0
BITMAP
F8
F8
F8
F8
F8
ENDCHAR
STARTCHAR 006E
ENCODING 110
SWIDTH 617 0
DWIDTH 6 0
BBX 4 5 1 0
BITMAP
F0
90
90
90
90
ENDCHAR
STARTCHAR 006F
ENCODING 111
SWIDTH 617 0
DWIDTH 6 0
BBX 5 5 0 0
BITMAP
78
48
C8
48
78
ENDCHAR
STARTCHAR 0070
ENCODING 112
SWIDTH 617 0
DWIDTH 6 0
BBX 4 7 1 -2
BITMAP
F0
90
90
90
F0
80
80
ENDCHAR
STARTCHAR 0071
ENCODING 113
SWIDTH 617 0
DWIDTH 6 0
BBX 5 7 0 -2
BITMAP
78
C8
C8
C8
78
08
08
ENDCHAR
STARTCHAR 0072
ENCODING 114
SWIDTH 617 0
DWIDTH 6 0
BBX 6 5 0 0
BITMAP
F8
6C
60
60
F8
ENDCHAR
STARTCHAR 0073
ENCODING 115
SWIDTH 617 0
DWIDTH 6 0
BBX 4 5 1 0
BITMAP
F0
80
F0
90
F0
ENDCHAR
STARTCHAR 0074
ENCODING 116
SWIDTH 617 0
DWIDTH 6 0
BBX 5 7 0 0
BITMAP
20
20
F8
20
20
20
38
ENDCHAR
STARTCHAR 0075
ENCODING 117
SWIDTH 617 0
DWIDTH 6 0
BBX 5 5 1 0
BITMAP
90
90
90
90
F8
ENDCHAR
STARTCHAR 0076
ENCODING 118
SWIDTH 617 0
DWIDTH 6 0
BBX 6 5 0 0
BITMAP
CC
48
78
30
30
ENDCHAR
STARTCHAR 0077
ENCODING 119
SWIDTH 617 0
DWIDTH 6 0
BBX 6 5 0 0
BITMAP
B4
BC
F8
78
58
ENDCHAR
STARTCHAR 0078
ENCODING 120
SWIDTH 617 0
DWIDTH 6 0
BBX 6 5 0 0
BITMAP
CC
78
30
78
CC
ENDCHAR
STARTCHAR 0079
ENCODING 121
SWIDTH 617 0
DWIDTH 6 0
BBX 6 7 0 -2
BITMAP
CC
48
78
30
30
20
60
ENDCHAR
STARTCHAR 007A
ENCODING 122
SWIDTH 617 0
DWIDTH 6 0
BBX 4 5 1 0
BITMAP
F0
20
60
C0
F0
ENDCHAR
STARTCHAR 007B
ENCODING 123
SWIDTH 617 0
DWIDTH 6 0
BBX 2 9 2 -2
BITMAP
40
C0
80
80
80
80
80
C0
40
ENDCHAR
STARTCHAR 007C
ENCODING 124
SWIDTH 617 0
DWIDTH 6 0
BBX 1 9 2 -2
BITMAP
80
80
80
80
80
80
80
80
80
ENDCHAR
STARTCHAR 007D
ENCODING 125
SWIDTH 617 0
DWIDTH 6 0
BBX 2 9 2 -2
BITMAP
80
80
80
80
40
80
80
80
80
ENDCHAR
STARTCHAR 007E
ENCODING 126
SWIDTH 617 0
DWIDTH 6 0
BBX 6 2 0 2
BITMAP
64
98
ENDCHAR
STARTCHAR 00A0
ENCODING 160
SWIDTH 617 0
DWIDTH 6 0
BBX 0 0 0 0
BITMAP
ENDCHAR
STARTCHAR 00A1
ENCODING 161
SWIDTH 617 0
DWIDTH 6 0
BBX 2 7 2 -2
BITMAP
C0
C0
80
C0
C0
C0
C0
ENDCHAR
STARTCHAR 00A2
ENCODING 162
SWIDTH 617 0
DWIDTH 6 0
BBX 4 7 1 0
BITMAP
60
70
90
80
90
F0
60
ENDCHAR
STARTCHAR 00A3
ENCODING 163
SWIDTH 617 0
DWIDTH 6 0
BBX 6 7 0 0
BITMAP
38
6C
60
F0
40
40
F8
ENDCHAR
STARTCHAR 00A4
ENCODING 164
SWIDTH 617 0
DWIDTH 6 0
BBX 5 5 0 1
BITMAP
B8
48
88
48
F8
ENDCHAR
STARTCHAR 00A5
ENCODING 165
SWIDTH 617 0
DWIDTH 6 0
BBX 6 7 0 0
BITMAP
CC
48
78
B4
FC
30
30
ENDCHAR
STARTCHAR 00A6
ENCODING 166
SWIDTH 617 0
DWIDTH 6 0
BBX 1 9 2 -2
BITMAP
80
80
80
80
00
80
80
80
80
ENDCHAR
STARTCHAR 00A7
ENCODING 167
SWIDTH 617 0
DWIDTH 6 0
BBX 4 9 1 -2
BITMAP
60
90
C0
F0
90
F0
30
90
60
ENDCHAR
STARTCHAR 00A8
ENCODING 168
SWIDTH 617 0
DWIDTH 6 0
BBX 4 1 1 6
BITMAP
B0
ENDCHAR
STARTCHAR 00A9
ENCODING 169
SWIDTH 617 0
DWIDTH 6 0
BBX 6 7 0 0
BITMAP
70
88
F4
CC
CC
B4
78
ENDCHAR
STARTCHAR 00AA
ENCODING 170
SWIDTH 617 0
DWIDTH 6 0
BBX 4 3 1 4
BITMAP
60
A0
F0
ENDCHAR
STARTCHAR 00AB
ENCODING 171
SWIDTH 617 0
DWIDTH 6 0
BBX 4 3 1 2
BITMAP
D0
A0
F0
ENDCHAR
STARTCHAR 00AC
ENCODING 172
SWIDTH 617 0
DWIDTH 6 0
BBX 5 3 0 2
BITMAP
F8
F8
08
ENDCHAR
STARTCHAR 00AD
ENCODING 173
SWIDTH 617 0
DWIDTH 6 0
BBX 2 1 2 2
BITMAP
C0
ENDCHAR
STARTCHAR 00AE
ENCODING 174
SWIDTH 617 0
DWIDTH 6 0
BBX 6 7 0 0
BITMAP
70
88
FC
F4
CC
C8
78
ENDCHAR
STARTCHAR 00AF
ENCODING 175
SWIDTH 617 0
DWIDTH 6 0
BBX 4 1 1 6
BITMAP
F0
ENDCHAR
STARTCHAR 00B0
ENCODING 176
SWIDTH 617 0
DWIDTH 6 0
BBX 3 3 1 4
BITMAP
60
A0
60
ENDCHAR
STARTCHAR 00B1
ENCODING 177
SWIDTH 617 0
DWIDTH 6 0
BBX 5 5 0 0
BITMAP
20
F8
20
20
F8
ENDCHAR
STARTCHAR 00B2
ENCODING 178
SWIDTH 617 0
DWIDTH 6 0
BBX 2 4 2 4
BITMAP
C0
C0
C0
C0
ENDCHAR
STARTCHAR 00B3
ENCODING 179
SWIDTH 617 0
DWIDTH 6 0
BBX 3 4 1 4
BITMAP
60
20
E0
60
ENDCHAR
STARTCHAR 00B4
ENCODING 180
SWIDTH 617 0
DWIDTH 6 0
BBX 2 1 2 6
BITMAP
C0
ENDCHAR
STARTCHAR 00B5
ENCODING 181
SWIDTH 617 0
DWIDTH 6 0
BBX 5 7 1 -2
BITMAP
90
90
90
90
F8
80
80
ENDCHAR
STARTCHAR 00B6
ENCODING 182
SWIDTH 617 0
DWIDTH 6 0
BBX 5 9 0 -2
BITMAP
38
68
E8
68
28
28
28
28
28
ENDCHAR
STARTCHAR 00B7
ENCODING 183
SWIDTH 617 0
DWIDTH 6 0
BBX 2 1 2 3
BITMAP
C0
ENDCHAR
STARTCHAR 00B8
ENCODING 184
SWIDTH 617 0
DWIDTH 6 0
BBX 2 2 2 -2
BITMAP
40
C0
ENDCHAR
STARTCHAR 00B9
ENCODING 185
SWIDTH 617 0
DWIDTH 6 0
BBX 2 4 2 4
BITMAP
80
80
80
C0
ENDCHAR
STARTCHAR 00BA
ENCODING 186
SWIDTH 617 0
DWIDTH 6 0
BBX 3 3 1 4
BITMAP
60
A0
E0
ENDCHAR
STARTCHAR 00BB
ENCODING 187
SWIDTH 617 0
DWIDTH 6 0
BBX 4 3 1 2
BITMAP
A0
50
B0
ENDCHAR
STARTCHAR 00BC
ENCODING 188
SWIDTH 617 0
DWIDTH 6 0
BBX 6 7 0 0
BITMAP
C4
48
50
C8
38
5C
88
ENDCHAR
STARTCHAR 00BD
ENCODING 189
SWIDTH 617 0
DWIDTH 6 0
BBX 6 7 0 0
BITMAP
C4
48
50
CC
34
48
9C
ENDCHAR
STARTCHAR 00BE
ENCODING 190
SWIDTH 617 0
DWIDTH 6 0
BBX 6 7 0 0
BITMAP
C4
28
70
E8
38
5C
88
ENDCHAR
STARTCHAR 00BF
ENCODING 191
SWIDTH 617 0
DWIDTH 6 0
BBX 4 7 1 -2
BITMAP
60
60
40
C0
90
90
60
ENDCHAR
STARTCHAR 00C0
ENCODING 192
SWIDTH 617 0
DWIDTH 6 0
BBX 6 9 0 0
BITMAP
60
20
30
30
78
58
48
F8
CC
ENDCHAR
STARTCHAR 00C1
ENCODING 193
SWIDTH 617 0
DWIDTH 6 0
BBX 6 9 0 0
BITMAP
18
30
30
30
78
58
48
F8
CC
ENDCHAR
STARTCHAR 00C2
ENCODING 194
SWIDTH 617 0
DWIDTH 6 0
BBX 6 9 0 0
BITMAP
30
58
30
30
78
58
48
F8
CC
ENDCHAR
STARTCHAR 00C3
ENCODING 195
SWIDTH 617 0
DWIDTH 6 0
BBX 6 9 0 0
BITMAP
28
50
30
30
78
58
48
F8
CC
ENDCHAR
STARTCHAR 00C4
ENCODING 196
SWIDTH 617 0
DWIDTH 6 0
BBX 6 9 0 0
BITMAP
58
58
30
30
78
58
48
F8
CC
ENDCHAR
STARTCHAR 00C5
ENCODING 197
SWIDTH 617 0
DWIDTH 6 0
BBX 6 9 0 0
BITMAP
30
30
30
30
78
58
48
F8
CC
ENDCHAR
STARTCHAR 00C6
ENCODING 198
SWIDTH 617 0
DWIDTH 6 0
BBX 6 7 0 0
BITMAP
3C
7C
50
58
50
F0
DC
ENDCHAR
STARTCHAR 00C7
ENCODING 199
SWIDTH 617 0
DWIDTH 6 0
BBX 5 9 0 -2
BITMAP
30
78
C8
C0
C8
C8
78
10
30
ENDCHAR
STARTCHAR 00C8
ENCODING 200
SWIDTH 617 0
DWIDTH 6 0
BBX 4 9 1 0
BITMAP
C0
60
F0
F0
80
F0
80
80
F0
ENDCHAR
STARTCHAR 00C9
ENCODING 201
SWIDTH 617 0
DWIDTH 6 0
BBX 4 9 1 0
BITMAP
30
20
F0
F0
80
F0
80
80
F0
ENDCHAR
STARTCHAR 00CA
ENCODING 202
SWIDTH 617 0
DWIDTH 6 0
BBX 4 9 1 0
BITMAP
60
90
F0
F0
80
F0
80
80
F0
ENDCHAR
STARTCHAR 00CB
ENCODING 203
SWIDTH 617 0
DWIDTH 6 0
BBX 4 9 1 0
BITMAP
90
90
F0
F0
80
F0
80
80
F0
ENDCHAR
STARTCHAR 00CC
ENCODING 204
SWIDTH 617 0
DWIDTH 6 0
BBX 4 9 1 0
BITMAP
C0
40
F0
F0
60
60
60
60
F0
ENDCHAR
STARTCHAR 00CD
ENCODING 205
SWIDTH 617 0
DWIDTH 6 0
BBX 4 9 1 0
BITMAP
30
60
F0
F0
60
60
60
60
F0
ENDCHAR
STARTCHAR 00CE
ENCODING 206
SWIDTH 617 0
DWIDTH 6 0
BBX 4 9 1 0
BITMAP
60
B0
F0
F0
60
60
60
60
F0
ENDCHAR
STARTCHAR 00CF
ENCODING 207
SWIDTH 617 0
DWIDTH 6 0
BBX 4 9 1 0
BITMAP
B0
B0
F0
F0
60
60
60
60
F0
ENDCHAR
STARTCHAR 00D0
ENCODING 208
SWIDTH 617 0
DWIDTH 6 0
BBX 6 7 0 0
BITMAP
70
78
4C
EC
4C
4C
78
ENDCHAR
STARTCHAR 00D1
ENCODING 209
SWIDTH 617 0
DWIDTH 6 0
BBX 4 9 1 0
BITMAP
50
A0
90
D0
D0
F0
B0
B0
90
ENDCHAR
STARTCHAR 00D2
ENCODING 210
SWIDTH 617 0
DWIDTH 6 0
BBX 6 9 0 0
BITMAP
60
20
30
78
CC
CC
CC
C8
78
ENDCHAR
STARTCHAR 00D3
ENCODING 211
SWIDTH 617 0
DWIDTH 6 0
BBX 6 9 0 0
BITMAP
18
30
30
78
CC
CC
CC
C8
78
ENDCHAR
STARTCHAR 00D4
ENCODING 212
SWIDTH 617 0
DWIDTH 6 0
BBX 6 9 0 0
BITMAP
30
58
30
78
CC
CC
CC
C8
78
ENDCHAR
STARTCHAR 00D5
ENCODING 213
SWIDTH 617 0
DWIDTH 6 0
BBX 6 9 0 0
BITMAP
28
50
30
78
CC
CC
CC
C8
78
ENDCHAR
STARTCHAR 00D6
ENCODING 214
SWIDTH 617 0
DWIDTH 6 0
BBX 6 9 0 0
BITMAP
58
58
30
78
CC
CC
CC
C8
78
ENDCHAR
STARTCHAR 00D7
ENCODING 215
SWIDTH 617 0
DWIDTH 6 0
BBX 4 5 1 0
BITMAP
90
F0
60
F0
90
ENDCHAR
STARTCHAR 00D8
ENCODING 216
SWIDTH 617 0
DWIDTH 6 0
BBX 6 8 0 -1
BITMAP
3C
78
DC
DC
EC
C8
78
80
ENDCHAR
STARTCHAR 00D9
ENCODING 217
SWIDTH 617 0
DWIDTH 6 0
BBX 5 9 0 0
BITMAP
60
30
C8
C8
C8
C8
C8
C8
78
ENDCHAR
STARTCHAR 00DA
ENCODING 218
SWIDTH 617 0
DWIDTH 6 0
BBX 5 9 0 0
BITMAP
18
30
C8
C8
C8
C8
C8
C8
78
ENDCHAR
STARTCHAR 00DB
ENCODING 219
SWIDTH 617 0
DWIDTH 6 0
BBX 5 9 0 0
BITMAP
30
58
C8
C8
C8
C8
C8
C8
78
ENDCHAR
STARTCHAR 00DC
ENCODING 220
SWIDTH 617 0
DWIDTH 6 0
BBX 5 9 0 0
BITMAP
58
58
C8
C8
C8
C8
C8
C8
78
ENDCHAR
STARTCHAR 00DD
ENCODING 221
SWIDTH 617 0
DWIDTH 6 0
BBX 6 9 0 0
BITMAP
18
30
CC
48
78
30
30
30
30
ENDCHAR
STARTCHAR 00DE
ENCODING 222
SWIDTH 617 0
DWIDTH 6 0
BBX 5 7 1 0
BITMAP
80
E0
F0
98
F0
E0
80
ENDCHAR
STARTCHAR 00DF
ENCODING 223
SWIDTH 617 0
DWIDTH 6 0
BBX 6 8 0 -1
BITMAP
78
48
C8
58
4C
4C
58
40
ENDCHAR
STARTCHAR 00E0
ENCODING 224
SWIDTH 617 0
DWIDTH 6 0
BBX 6 7 0 0
BITMAP
60
10
78
48
78
D8
7C
ENDCHAR
STARTCHAR 00E1
ENCODING 225
SWIDTH 617 0
DWIDTH 6 0
BBX 6 7 0 0
BITMAP
30
00
78
48
78
D8
7C
ENDCHAR
STARTCHAR 00E2
ENCODING 226
SWIDTH 617 0
DWIDTH 6 0
BBX 6 7 0 0
BITMAP
70
08
78
48
78
D8
7C
ENDCHAR
STARTCHAR 00E3
ENCODING 227
SWIDTH 617 0
DWIDTH 6 0
BBX 6 7 0 0
BITMAP
78
00
78
48
78
D8
7C
ENDCHAR
STARTCHAR 00E4
ENCODING 228
SWIDTH 617 0
DWIDTH 6 0
BBX 6 7 0 0
BITMAP
58
00
78
48
78
D8
7C
ENDCHAR
STARTCHAR 00E5
ENCODING 229
SWIDTH 617 0
DWIDTH 6 0
BBX 6 8 0 0
BITMAP
20
30
00
78
48
78
D8
7C
ENDCHAR
STARTCHAR 00E6
ENCODING 230
SWIDTH 617 0
DWIDTH 6 0
BBX 6 5 0 0
BITMAP
78
B4
7C
B4
F8
ENDCHAR
STARTCHAR 00E7
ENCODING 231
SWIDTH 617 0
DWIDTH 6 0
BBX 5 7 0 -2
BITMAP
78
48
C0
48
78
10
30
ENDCHAR
STARTCHAR 00E8
ENCODING 232
SWIDTH 617 0
DWIDTH 6 0
BBX 5 7 0 0
BITMAP
20
10
78
48
F8
48
78
ENDCHAR
STARTCHAR 00E9
ENCODING 233
SWIDTH 617 0
DWIDTH 6 0
BBX 5 7 0 0
BITMAP
10
20
78
48
F8
48
78
ENDCHAR
STARTCHAR 00EA
ENCODING 234
SWIDTH 617 0
DWIDTH 6 0
BBX 5 7 0 0
BITMAP
30
48
78
48
F8
48
78
ENDCHAR
STARTCHAR 00EB
ENCODING 235
SWIDTH 617 0
DWIDTH 6 0
BBX 5 7 0 0
BITMAP
48
00
78
48
F8
48
78
ENDCHAR
STARTCHAR 00EC
ENCODING 236
SWIDTH 617 0
DWIDTH 6 0
BBX 4 7 1 0
BITMAP
60
00
E0
60
60
60
F0
ENDCHAR
STARTCHAR 00ED
ENCODING 237
SWIDTH 617 0
DWIDTH 6 0
BBX 4 7 1 0
BITMAP
30
40
E0
60
60
60
F0
ENDCHAR
STARTCHAR 00EE
ENCODING 238
SWIDTH 617 0
DWIDTH 6 0
BBX 4 7 1 0
BITMAP
60
90
E0
60
60
60
F0
ENDCHAR
STARTCHAR 00EF
ENCODING 239
SWIDTH 617 0
DWIDTH 6 0
BBX 4 7 1 0
BITMAP
D0
00
E0
60
60
60
F0
ENDCHAR
STARTCHAR 00F0
ENCODING 240
SWIDTH 617 0
DWIDTH 6 0
BBX 5 7 0 0
BITMAP
70
50
78
C8
C8
C8
78
ENDCHAR
STARTCHAR 00F1
ENCODING 241
SWIDTH 617 0
DWIDTH 6 0
BBX 4 7 1 0
BITMAP
F0
00
F0
90
90
90
90
ENDCHAR
STARTCHAR 00F2
ENCODING 242
SWIDTH 617 0
DWIDTH 6 0
BBX 5 7 0 0
BITMAP
60
10
78
48
C8
48
78
ENDCHAR
STARTCHAR 00F3
ENCODING 243
SWIDTH 617 0
DWIDTH 6 0
BBX 5 7 0 0
BITMAP
30
00
78
48
C8
48
78
ENDCHAR
STARTCHAR 00F4
ENCODING 244
SWIDTH 617 0
DWIDTH 6 0
BBX 5 7 0 0
BITMAP
30
48
78
48
C8
48
78
ENDCHAR
STARTCHAR 00F5
ENCODING 245
SWIDTH 617 0
DWIDTH 6 0
BBX 5 7 0 0
BITMAP
78
00
78
48
C8
48
78
ENDCHAR
STARTCHAR 00F6
ENCODING 246
SWIDTH 617 0
DWIDTH 6 0
BBX 5 7 0 0
BITMAP
58
00
78
48
C8
48
78
ENDCHAR
STARTCHAR 00F7
ENCODING 247
SWIDTH 617 0
DWIDTH 6 0
BBX 5 5 0 0
BITMAP
20
00
F8
00
20
ENDCHAR
STARTCHAR 00F8
ENCODING 248
SWIDTH 617 0
DWIDTH 6 0
BBX 5 6 0 0
BITMAP
08
78
58
E8
68
78
ENDCHAR
STARTCHAR 00F9
ENCODING 249
SWIDTH 617 0
DWIDTH 6 0
BBX 5 7 1 0
BITMAP
C0
20
90
90
90
90
F8
ENDCHAR
STARTCHAR 00FA
ENCODING 250
SWIDTH 617 0
DWIDTH 6 0
BBX 5 7 1 0
BITMAP
60
00
90
90
90
90
F8
ENDCHAR
STARTCHAR 00FB
ENCODING 251
SWIDTH 617 0
DWIDTH 6 0
BBX 5 7 1 0
BITMAP
60
90
90
90
90
90
F8
ENDCHAR
STARTCHAR 00FC
ENCODING 252
SWIDTH 617 0
DWIDTH 6 0
BBX 5 7 1 0
BITMAP
B0
00
90
90
90
90
F8
ENDCHAR
STARTCHAR 00FD
ENCODING 253
SWIDTH 617 0
DWIDTH 6 0
BBX 6 9 0 -2
BITMAP
10
20
CC
48
78
30
30
20
60
ENDCHAR
STARTCHAR 00FE
ENCODING 254
SWIDTH 617 0
DWIDTH 6 0
BBX 4 9 1 -2
BITMAP
80
80
F0
90
90
90
F0
80
80
ENDCHAR
STARTCHAR 00FF
ENCODING 255
SWIDTH 617 0
DWIDTH 6 0
BBX 6 9 0 -2
BITMAP
48
00
CC
48
78
30
30
20
60
ENDCHAR
STARTCHAR 0100
ENCODING 256
SWIDTH 617 0
DWIDTH 6 0
BBX 6 8 0 0
BITMAP
78
30
30
78
58
48
F8
CC
ENDCHAR
STARTCHAR 0101
ENCODING 257
SWIDTH 617 0
DWIDTH 6 0
BBX 6 7 0 0
BITMAP
78
00
78
48
78
D8
7C
ENDCHAR
STARTCHAR 0102
ENCODING 258
SWIDTH 617 0
DWIDTH 6 0
BBX 6 9 0 0
BITMAP
48
30
30
30
78
58
48
F8
CC
ENDCHAR
STARTCHAR 0103
ENCODING 259
SWIDTH 617 0
DWIDTH 6 0
BBX 6 7 0 0
BITMAP
78
00
78
48
78
D8
7C
ENDCHAR
STARTCHAR 0104
ENCODING 260
SWIDTH 617 0
DWIDTH 6 0
BBX 6 8 0 -1
BITMAP
30
30
78
58
48
F8
CC
0C
ENDCHAR
STARTCHAR 0105
ENCODING 261
SWIDTH 617 0
DWIDTH 6 0
BBX 6 6 0 -1
BITMAP
78
48
78
D8
7C
0C
ENDCHAR
STARTCHAR 0106
ENCODING 262
SWIDTH 617 0
DWIDTH 6 0
BBX 5 9 0 0
BITMAP
18
30
30
78
C8
C0
C8
C8
78
ENDCHAR
STARTCHAR 0107
ENCODING 263
SWIDTH 617 0
DWIDTH 6 0
BBX 5 7 0 0
BITMAP
30
00
78
48
C0
48
78
ENDCHAR
STARTCHAR 0108
ENCODING 264
SWIDTH 617 0
DWIDTH 6 0
BBX 5 9 0 0
BITMAP
30
58
30
78
C8
C0
C8
C8
78
ENDCHAR
STARTCHAR 0109
ENCODING 265
SWIDTH 617 0
DWIDTH 6 0
BBX 5 7 0 0
BITMAP
30
48
78
48
C0
48
78
ENDCHAR
STARTCHAR 010A
ENCODING 266
SWIDTH 617 0
DWIDTH 6 0
BBX 5 9 0 0
BITMAP
30
30
30
78
C8
C0
C8
C8
78
ENDCHAR
STARTCHAR 010B
ENCODING 267
SWIDTH 617 0
DWIDTH 6 0
BBX 5 7 0 0
BITMAP
20
00
78
48
C0
48
78
ENDCHAR
STARTCHAR 010C
ENCODING 268
SWIDTH 617 0
DWIDTH 6 0
BBX 5 9 0 0
BITMAP
48
30
30
78
C8
C0
C8
C8
78
ENDCHAR
STARTCHAR 010D
ENCODING 269
SWIDTH 617 0
DWIDTH 6 0
BBX 5 7 0 0
BITMAP
78
00
78
48
C0
48
78
ENDCHAR
STARTCHAR 010E
ENCODING 270
SWIDTH 617 0
DWIDTH 6 0
BBX 5 9 1 0
BITMAP
90
60
E0
F0
98
98
98
98
F0
ENDCHAR
STARTCHAR 010F
ENCODING 271
SWIDTH 617 0
DWIDTH 6 0
BBX 7 7 0 0
BITMAP
0A
0A
7A
C8
C8
C8
78
ENDCHAR
STARTCHAR 0110
ENCODING 272
SWIDTH 617 0
DWIDTH 6 0
BBX 6 7 0 0
BITMAP
70
78
4C
EC
4C
4C
78
ENDCHAR
STARTCHAR 0111
ENCODING 273
SWIDTH 617 0
DWIDTH 6 0
BBX 6 7 0 0
BITMAP
08
3C
78
C8
C8
C8
78
ENDCHAR
STARTCHAR 0112
ENCODING 274
SWIDTH 617 0
DWIDTH 6 0
BBX 4 8 1 0
BITMAP
F0
F0
F0
80
F0
80
80
F0
ENDCHAR
STARTCHAR 0113
ENCODING 275
SWIDTH 617 0
DWIDTH 6 0
BBX 5 7 0 0
BITMAP
78
00
78
48
F8
48
78
ENDCHAR
STARTCHAR 0114
ENCODING 276
SWIDTH 617 0
DWIDTH 6 0
BBX 4 9 1 0
BITMAP
90
60
F0
F0
80
F0
80
80
F0
ENDCHAR
STARTCHAR 0115
ENCODING 277
SWIDTH 617 0
DWIDTH 6 0
BBX 5 7 0 0
BITMAP
78
00
78
48
F8
48
78
ENDCHAR
STARTCHAR 0116
ENCODING 278
SWIDTH 617 0
DWIDTH 6 0
BBX 4 9 1 0
BITMAP
60
60
F0
F0
80
F0
80
80
F0
ENDCHAR
STARTCHAR 0117
ENCODING 279
SWIDTH 617 0
DWIDTH 6 0
BBX 5 7 0 0
BITMAP
30
00
78
48
F8
48
78
ENDCHAR
STARTCHAR 0118
ENCODING 280
SWIDTH 617 0
DWIDTH 6 0
BBX 5 8 1 -1
BITMAP
F0
F0
80
F0
80
80
F0
38
ENDCHAR
STARTCHAR 0119
ENCODING 281
SWIDTH 617 0
DWIDTH 6 0
BBX 5 6 0 -1
BITMAP
78
48
F8
48
78
38
ENDCHAR
STARTCHAR 011A
ENCODING 282
SWIDTH 617 0
DWIDTH 6 0
BBX 4 9 1 0
BITMAP
90
60
F0
F0
80
F0
80
80
F0
ENDCHAR
STARTCHAR 011B
ENCODING 283
SWIDTH 617 0
DWIDTH 6 0
BBX 5 7 0 0
BITMAP
78
00
78
48
F8
48
78
ENDCHAR
STARTCHAR 011C
ENCODING 284
SWIDTH 617 0
DWIDTH 6 0
BBX 6 9 0 0
BITMAP
30
58
30
78
CC
DC
CC
CC
74
ENDCHAR
STARTCHAR 011D
ENCODING 285
SWIDTH 617 0
DWIDTH 6 0
BBX 6 9 0 -2
BITMAP
30
5C
78
48
78
40
7C
CC
78
ENDCHAR
STARTCHAR 011E
ENCODING 286
SWIDTH 617 0
DWIDTH 6 0
BBX 6 9 0 0
BITMAP
48
30
30
78
CC
DC
CC
CC
74
ENDCHAR
STARTCHAR 011F
ENCODING 287
SWIDTH 617 0
DWIDTH 6 0
BBX 6 9 0 -2
BITMAP
78
0C
78
48
78
40
7C
CC
78
ENDCHAR
STARTCHAR 0120
ENCODING 288
SWIDTH 617 0
DWIDTH 6 0
BBX 6 9 0 0
BITMAP
20
20
30
78
CC
DC
CC
CC
74
ENDCHAR
STARTCHAR 0121
ENCODING 289
SWIDTH 617 0
DWIDTH 6 0
BBX 6 9 0 -2
BITMAP
30
0C
78
48
78
40
7C
CC
78
ENDCHAR
STARTCHAR 0122
ENCODING 290
SWIDTH 617 0
DWIDTH 6 0
BBX 6 11 0 -4
BITMAP
30
78
CC
DC
CC
CC
74
00
30
10
20
ENDCHAR
STARTCHAR 0123
ENCODING 291
SWIDTH 617 0
DWIDTH 6 0
BBX 6 11 0 -2
BITMAP
10
20
30
0C
78
48
78
40
7C
CC
78
ENDCHAR
STARTCHAR 0124
ENCODING 292
SWIDTH 617 0
DWIDTH 6 0
BBX 4 9 1 0
BITMAP
60
B0
90
90
90
F0
90
90
90
ENDCHAR
STARTCHAR 0125
ENCODING 293
SWIDTH 617 0
DWIDTH 6 0
BBX 5 9 0 0
BITMAP
40
A0
40
40
78
48
48
48
48
ENDCHAR
STARTCHAR 0126
ENCODING 294
SWIDTH 617 0
DWIDTH 6 0
BBX 6 7 0 0
BITMAP
48
FC
48
78
48
48
48
ENDCHAR
STARTCHAR 0127
ENCODING 295
SWIDTH 617 0
DWIDTH 6 0
BBX 5 7 0 0
BITMAP
40
F0
78
48
48
48
48
ENDCHAR
STARTCHAR 0128
ENCODING 296
SWIDTH 617 0
DWIDTH 6 0
BBX 4 9 1 0
BITMAP
50
A0
F0
F0
60
60
60
60
F0
ENDCHAR
STARTCHAR 0129
ENCODING 297
SWIDTH 617 0
DWIDTH 6 0
BBX 4 7 1 0
BITMAP
F0
00
E0
60
60
60
F0
ENDCHAR
STARTCHAR 012A
ENCODING 298
SWIDTH 617 0
DWIDTH 6 0
BBX 4 8 1 0
BITMAP
F0
F0
F0
60
60
60
60
F0
ENDCHAR
STARTCHAR 012B
ENCODING 299
SWIDTH 617 0
DWIDTH 6 0
BBX 4 7 1 0
BITMAP
F0
00
E0
60
60
60
F0
ENDCHAR
STARTCHAR 012C
ENCODING 300
SWIDTH 617 0
DWIDTH 6 0
BBX 4 9 1 0
BITMAP
90
60
F0
F0
60
60
60
60
F0
ENDCHAR
STARTCHAR 012D
ENCODING 301
SWIDTH 617 0
DWIDTH 6 0
BBX 4 7 1 0
BITMAP
F0
00
E0
60
60
60
F0
ENDCHAR
STARTCHAR 012E
ENCODING 302
SWIDTH 617 0
DWIDTH 6 0
BBX 4 8 1 -1
BITMAP
F0
F0
60
60
60
60
F0
30
ENDCHAR
STARTCHAR 012F
ENCODING 303
SWIDTH 617 0
DWIDTH 6 0
BBX 4 8 1 -1
BITMAP
20
00
E0
60
60
60
F0
70
ENDCHAR
STARTCHAR 0130
ENCODING 304
SWIDTH 617 0
DWIDTH 6 0
BBX 4 9 1 0
BITMAP
60
60
F0
F0
60
60
60
60
F0
ENDCHAR
STARTCHAR 0131
ENCODING 305
SWIDTH 617 0
DWIDTH 6 0
BBX 4 5 1 0
BITMAP
E0
60
60
60
F0
ENDCHAR
STARTCHAR 0132
ENCODING 306
SWIDTH 617 0
DWIDTH 6 0
BBX 4 7 1 0
BITMAP
90
90
90
90
10
90
F0
ENDCHAR
STARTCHAR 0133
ENCODING 307
SWIDTH 617 0
DWIDTH 6 0
BBX 4 9 1 -2
BITMAP
90
00
B0
90
90
90
90
10
60
ENDCHAR
STARTCHAR 0134
ENCODING 308
SWIDTH 617 0
DWIDTH 6 0
BBX 5 9 1 0
BITMAP
10
28
10
10
10
10
10
B0
F0
ENDCHAR
STARTCHAR 0135
ENCODING 309
SWIDTH 617 0
DWIDTH 6 0
BBX 4 9 1 -2
BITMAP
70
80
E0
60
60
60
60
60
C0
ENDCHAR
STARTCHAR 0136
ENCODING 310
SWIDTH 617 0
DWIDTH 6 0
BBX 5 11 1 -4
BITMAP
98
B0
A0
E0
E0
B0
98
00
60
20
40
ENDCHAR
STARTCHAR 0137
ENCODING 311
SWIDTH 617 0
DWIDTH 6 0
BBX 5 11 1 -4
BITMAP
80
80
B8
A0
E0
F0
B8
00
60
20
40
ENDCHAR
STARTCHAR 0138
ENCODING 312
SWIDTH 617 0
DWIDTH 6 0
BBX 5 5 1 0
BITMAP
B8
A0
E0
F0
B8
ENDCHAR
STARTCHAR 0139
ENCODING 313
SWIDTH 617 0
DWIDTH 6 0
BBX 4 9 1 0
BITMAP
40
80
80
80
80
80
80
80
F0
ENDCHAR
STARTCHAR 013A
ENCODING 314
SWIDTH 617 0
DWIDTH 6 0
BBX 4 9 1 0
BITMAP
30
60
E0
60
60
60
60
60
F0
ENDCHAR
STARTCHAR 013B
ENCODING 315
SWIDTH 617 0
DWIDTH 6 0
BBX 4 11 1 -4
BITMAP
80
80
80
80
80
80
F0
00
60
20
40
ENDCHAR
STARTCHAR 013C
ENCODING 316
SWIDTH 617 0
DWIDTH 6 0
BBX 4 11 1 -4
BITMAP
E0
60
60
60
60
60
F0
00
60
20
40
ENDCHAR
STARTCHAR 013D
ENCODING 317
SWIDTH 617 0
DWIDTH 6 0
BBX 4 7 1 0
BITMAP
90
90
90
80
80
80
F0
ENDCHAR
STARTCHAR 013E
ENCODING 318
SWIDTH 617 0
DWIDTH 6 0
BBX 5 7 1 0
BITMAP
F8
78
78
60
60
60
F0
ENDCHAR
STARTCHAR 013F
ENCODING 319
SWIDTH 617 0
DWIDTH 6 0
BBX 4 7 1 0
BITMAP
80
80
B0
B0
80
80
F0
ENDCHAR
STARTCHAR 0140
ENCODING 320
SWIDTH 617 0
DWIDTH 6 0
BBX 6 7 1 0
BITMAP
E0
60
60
6C
60
60
F0
ENDCHAR
STARTCHAR 0141
ENCODING 321
SWIDTH 617 0
DWIDTH 6 0
BBX 5 7 0 0
BITMAP
40
40
70
C0
40
40
78
ENDCHAR
STARTCHAR 0142
ENCODING 322
SWIDTH 617 0
DWIDTH 6 0
BBX 4 7 1 0
BITMAP
E0
60
70
60
E0
60
F0
ENDCHAR
STARTCHAR 0143
ENCODING 323
SWIDTH 617 0
DWIDTH 6 0
BBX 4 9 1 0
BITMAP
30
60
90
D0
D0
F0
B0
B0
90
ENDCHAR
STARTCHAR 0144
ENCODING 324
SWIDTH 617 0
DWIDTH 6 0
BBX 4 7 1 0
BITMAP
20
40
F0
90
90
90
90
ENDCHAR
STARTCHAR 0145
ENCODING 325
SWIDTH 617 0
DWIDTH 6 0
BBX 4 11 1 -4
BITMAP
90
D0
D0
F0
B0
B0
90
00
60
20
40
ENDCHAR
STARTCHAR 0146
ENCODING 326
SWIDTH 617 0
DWIDTH 6 0
BBX 4 9 1 -4
BITMAP
F0
90
90
90
90
00
60
20
40
ENDCHAR
STARTCHAR 0147
ENCODING 327
SWIDTH 617 0
DWIDTH 6 0
BBX 4 9 1 0
BITMAP
90
60
90
D0
D0
F0
B0
B0
90
ENDCHAR
STARTCHAR 0148
ENCODING 328
SWIDTH 617 0
DWIDTH 6 0
BBX 4 7 1 0
BITMAP
F0
00
F0
90
90
90
90
ENDCHAR
STARTCHAR 0149
ENCODING 329
SWIDTH 617 0
DWIDTH 6 0
BBX 5 8 0 0
BITMAP
80
40
80
78
48
48
48
48
ENDCHAR
STARTCHAR 014A
ENCODING 330
SWIDTH 617 0
DWIDTH 6 0
BBX 4 9 1 -2
BITMAP
90
D0
D0
F0
B0
B0
90
10
30
ENDCHAR
STARTCHAR 014B
ENCODING 331
SWIDTH 617 0
DWIDTH 6 0
BBX 4 7 1 -2
BITMAP
F0
90
90
90
90
10
30
ENDCHAR
STARTCHAR 014C
ENCODING 332
SWIDTH 617 0
DWIDTH 6 0
BBX 6 8 0 0
BITMAP
78
30
78
CC
CC
CC
C8
78
ENDCHAR
STARTCHAR 014D
ENCODING 333
SWIDTH 617 0
DWIDTH 6 0
BBX 5 7 0 0
BITMAP
78
00
78
48
C8
48
78
ENDCHAR
STARTCHAR 014E
ENCODING 334
SWIDTH 617 0
DWIDTH 6 0
BBX 6 9 0 0
BITMAP
48
30
30
78
CC
CC
CC
C8
78
ENDCHAR
STARTCHAR 014F
ENCODING 335
SWIDTH 617 0
DWIDTH 6 0
BBX 5 7 0 0
BITMAP
78
00
78
48
C8
48
78
ENDCHAR
STARTCHAR 0150
ENCODING 336
SWIDTH 617 0
DWIDTH 6 0
BBX 6 9 0 0
BITMAP
38
70
30
78
CC
CC
CC
C8
78
ENDCHAR
STARTCHAR 0151
ENCODING 337
SWIDTH 617 0
DWIDTH 6 0
BBX 6 7 0 0
BITMAP
3C
50
78
48
C8
48
78
ENDCHAR
STARTCHAR 0152
ENCODING 338
SWIDTH 617 0
DWIDTH 6 0
BBX 6 7 0 0
BITMAP
3C
F8
D0
D8
D0
D0
7C
ENDCHAR
STARTCHAR 0153
ENCODING 339
SWIDTH 617 0
DWIDTH 6 0
BBX 6 5 0 0
BITMAP
F8
B4
BC
B4
F8
ENDCHAR
STARTCHAR 0154
ENCODING 340
SWIDTH 617 0
DWIDTH 6 0
BBX 5 9 1 0
BITMAP
30
60
F0
F8
98
F0
B0
98
98
ENDCHAR
STARTCHAR 0155
ENCODING 341
SWIDTH 617 0
DWIDTH 6 0
BBX 6 7 0 0
BITMAP
10
20
F8
6C
60
60
F8
ENDCHAR
STARTCHAR 0156
ENCODING 342
SWIDTH 617 0
DWIDTH 6 0
BBX 5 11 1 -4
BITMAP
F0
F8
98
F0
B0
98
98
00
60
20
40
ENDCHAR
STARTCHAR 0157
ENCODING 343
SWIDTH 617 0
DWIDTH 6 0
BBX 6 9 0 -4
BITMAP
F8
6C
60
60
F8
00
20
20
20
ENDCHAR
STARTCHAR 0158
ENCODING 344
SWIDTH 617 0
DWIDTH 6 0
BBX 5 9 1 0
BITMAP
90
60
F0
F8
98
F0
B0
98
98
ENDCHAR
STARTCHAR 0159
ENCODING 345
SWIDTH 617 0
DWIDTH 6 0
BBX 6 7 0 0
BITMAP
78
00
F8
6C
60
60
F8
ENDCHAR
STARTCHAR 015A
ENCODING 346
SWIDTH 617 0
DWIDTH 6 0
BBX 6 9 0 0
BITMAP
18
30
30
D8
C4
78
1C
CC
78
ENDCHAR
STARTCHAR 015B
ENCODING 347
SWIDTH 617 0
DWIDTH 6 0
BBX 4 7 1 0
BITMAP
60
00
F0
80
F0
90
F0
ENDCHAR
STARTCHAR 015C
ENCODING 348
SWIDTH 617 0
DWIDTH 6 0
BBX 6 9 0 0
BITMAP
30
58
30
D8
C4
78
1C
CC
78
ENDCHAR
STARTCHAR 015D
ENCODING 349
SWIDTH 617 0
DWIDTH 6 0
BBX 4 7 1 0
BITMAP
60
90
F0
80
F0
90
F0
ENDCHAR
STARTCHAR 015E
ENCODING 350
SWIDTH 617 0
DWIDTH 6 0
BBX 6 9 0 -2
BITMAP
30
D8
C4
78
1C
CC
78
10
30
ENDCHAR
STARTCHAR 015F
ENCODING 351
SWIDTH 617 0
DWIDTH 6 0
BBX 4 7 1 -2
BITMAP
F0
80
F0
90
F0
20
60
ENDCHAR
STARTCHAR 0160
ENCODING 352
SWIDTH 617 0
DWIDTH 6 0
BBX 6 9 0 0
BITMAP
48
30
30
D8
C4
78
1C
CC
78
ENDCHAR
STARTCHAR 0161
ENCODING 353
SWIDTH 617 0
DWIDTH 6 0
BBX 4 7 1 0
BITMAP
F0
00
F0
80
F0
90
F0
ENDCHAR
STARTCHAR 0162
ENCODING 354
SWIDTH 617 0
DWIDTH 6 0
BBX 6 9 0 -2
BITMAP
FC
FC
30
30
30
30
30
10
30
ENDCHAR
STARTCHAR 0163
ENCODING 355
SWIDTH 617 0
DWIDTH 6 0
BBX 5 9 0 -2
BITMAP
20
20
F8
20
20
20
38
10
38
ENDCHAR
STARTCHAR 0164
ENCODING 356
SWIDTH 617 0
DWIDTH 6 0
BBX 6 9 0 0
BITMAP
48
30
FC
FC
30
30
30
30
30
ENDCHAR
STARTCHAR 0165
ENCODING 357
SWIDTH 617 0
DWIDTH 6 0
BBX 5 8 0 0
BITMAP
08
28
28
F8
20
20
20
38
ENDCHAR
STARTCHAR 0166
ENCODING 358
SWIDTH 617 0
DWIDTH 6 0
BBX 6 7 0 0
BITMAP
FC
FC
30
78
30
30
30
ENDCHAR
STARTCHAR 0167
ENCODING 359
SWIDTH 617 0
DWIDTH 6 0
BBX 5 7 0 0
BITMAP
20
20
F8
20
78
20
38
ENDCHAR
STARTCHAR 0168
ENCODING 360
SWIDTH 617 0
DWIDTH 6 0
BBX 5 9 0 0
BITMAP
28
50
C8
C8
C8
C8
C8
C8
78
ENDCHAR
STARTCHAR 0169
ENCODING 361
SWIDTH 617 0
DWIDTH 6 0
BBX 5 7 1 0
BITMAP
F0
00
90
90
90
90
F8
ENDCHAR
STARTCHAR 016A
ENCODING 362
SWIDTH 617 0
DWIDTH 6 0
BBX 5 8 0 0
BITMAP
78
C8
C8
C8
C8
C8
C8
78
ENDCHAR
STARTCHAR 016B
ENCODING 363
SWIDTH 617 0
DWIDTH 6 0
BBX 5 7 1 0
BITMAP
F0
00
90
90
90
90
F8
ENDCHAR
STARTCHAR 016C
ENCODING 364
SWIDTH 617 0
DWIDTH 6 0
BBX 5 9 0 0
BITMAP
48
30
C8
C8
C8
C8
C8
C8
78
ENDCHAR
STARTCHAR 016D
ENCODING 365
SWIDTH 617 0
DWIDTH 6 0
BBX 5 7 1 0
BITMAP
F0
00
90
90
90
90
F8
ENDCHAR
STARTCHAR 016E
ENCODING 366
SWIDTH 617 0
DWIDTH 6 0
BBX 5 9 0 0
BITMAP
30
30
C8
C8
C8
C8
C8
C8
78
ENDCHAR
STARTCHAR 016F
ENCODING 367
SWIDTH 617 0
DWIDTH 6 0
BBX 5 8 1 0
BITMAP
40
60
00
90
90
90
90
F8
ENDCHAR
STARTCHAR 0170
ENCODING 368
SWIDTH 617 0
DWIDTH 6 0
BBX 5 9 0 0
BITMAP
38
30
C8
C8
C8
C8
C8
C8
78
ENDCHAR
STARTCHAR 0171
ENCODING 369
SWIDTH 617 0
DWIDTH 6 0
BBX 5 7 1 0
BITMAP
70
A0
90
90
90
90
F8
ENDCHAR
STARTCHAR 0172
ENCODING 370
SWIDTH 617 0
DWIDTH 6 0
BBX 5 8 0 -1
BITMAP
C8
C8
C8
C8
C8
C8
78
38
ENDCHAR
STARTCHAR 0173
ENCODING 371
SWIDTH 617 0
DWIDTH 6 0
BBX 5 6 1 -1
BITMAP
90
90
90
90
F8
18
ENDCHAR
STARTCHAR 0174
ENCODING 372
SWIDTH 617 0
DWIDTH 6 0
BBX 6 9 0 0
BITMAP
30
58
B4
BC
FC
F8
F8
78
58
ENDCHAR
STARTCHAR 0175
ENCODING 373
SWIDTH 617 0
DWIDTH 6 0
BBX 6 7 0 0
BITMAP
30
48
B4
BC
F8
78
58
ENDCHAR
STARTCHAR 0176
ENCODING 374
SWIDTH 617 0
DWIDTH 6 0
BBX 6 9 0 0
BITMAP
30
58
CC
48
78
30
30
30
30
ENDCHAR
STARTCHAR 0177
ENCODING 375
SWIDTH 617 0
DWIDTH 6 0
BBX 6 9 0 -2
BITMAP
30
48
CC
48
78
30
30
20
60
ENDCHAR
STARTCHAR 0178
ENCODING 376
SWIDTH 617 0
DWIDTH 6 0
BBX 6 9 0 0
BITMAP
58
58
CC
48
78
30
30
30
30
ENDCHAR
STARTCHAR 0179
ENCODING 377
SWIDTH 617 0
DWIDTH 6 0
BBX 6 9 0 0
BITMAP
18
30
FC
F8
18
30
60
60
FC
ENDCHAR
STARTCHAR 017A
ENCODING 378
SWIDTH 617 0
DWIDTH 6 0
BBX 4 7 1 0
BITMAP
60
00
F0
20
60
C0
F0
ENDCHAR
STARTCHAR 017B
ENCODING 379
SWIDTH 617 0
DWIDTH 6 0
BBX 6 9 0 0
BITMAP
30
30
FC
F8
18
30
60
60
FC
ENDCHAR
STARTCHAR 017C
ENCODING 380
SWIDTH 617 0
DWIDTH 6 0
BBX 4 7 1 0
BITMAP
60
00
F0
20
60
C0
F0
ENDCHAR
STARTCHAR 017D
ENCODING 381
SWIDTH 617 0
DWIDTH 6 0
BBX 6 9 0 0
BITMAP
48
30
FC
F8
18
30
60
60
FC
ENDCHAR
STARTCHAR 017E
ENCODING 382
SWIDTH 617 0
DWIDTH 6 0
BBX 4 7 1 0
BITMAP
F0
00
F0
20
60
C0
F0
ENDCHAR
STARTCHAR 017F
ENCODING 383
SWIDTH 617 0
DWIDTH 6 0
BBX 4 7 1 0
BITMAP
70
60
E0
60
60
60
F0
ENDCHAR
STARTCHAR 018F
ENCODING 399
SWIDTH 617 0
DWIDTH 6 0
BBX 6 7 0 0
BITMAP
30
F8
CC
FC
FC
C8
78
ENDCHAR
STARTCHAR 0191
ENCODING 401
SWIDTH 617 0
DWIDTH 6 0
BBX 5 9 0 -2
BITMAP
78
78
40
78
40
40
40
40
C0
ENDCHAR
STARTCHAR 0192
ENCODING 402
SWIDTH 617 0
DWIDTH 6 0
BBX 5 9 0 -2
BITMAP
18
30
38
30
30
20
20
20
C0
ENDCHAR
STARTCHAR 0197
ENCODING 407
SWIDTH 617 0
DWIDTH 6 0
BBX 4 7 1 0
BITMAP
F0
F0
60
F0
60
60
F0
ENDCHAR
STARTCHAR 019D
ENCODING 413
SWIDTH 617 0
DWIDTH 6 0
BBX 6 9 -1 -2
BITMAP
24
34
34
3C
2C
2C
24
60
E0
ENDCHAR
STARTCHAR 01A0
ENCODING 416
SWIDTH 617 0
DWIDTH 6 0
BBX 6 8 0 0
BITMAP
04
3C
78
CC
CC
CC
C8
78
ENDCHAR
STARTCHAR 01A1
ENCODING 417
SWIDTH 617 0
DWIDTH 6 0
BBX 6 6 0 0
BITMAP
04
78
48
C8
48
78
ENDCHAR
STARTCHAR 01AF
ENCODING 431
SWIDTH 617 0
DWIDTH 6 0
BBX 7 8 0 0
BITMAP
06
CC
C8
C8
C8
C8
C8
78
ENDCHAR
STARTCHAR 01B0
ENCODING 432
SWIDTH 617 0
DWIDTH 6 0
BBX 5 6 1 0
BITMAP
08
90
90
90
90
F8
ENDCHAR
STARTCHAR 01C4
ENCODING 452
SWIDTH 617 0
DWIDTH 6 0
BBX 6 9 0 0
BITMAP
14
08
DC
FC
A8
A8
A8
B0
FC
ENDCHAR
STARTCHAR 01C5
ENCODING 453
SWIDTH 617 0
DWIDTH 6 0
BBX 6 7 0 0
BITMAP
D4
E8
AC
A8
A8
A8
FC
ENDCHAR
STARTCHAR 01C6
ENCODING 454
SWIDTH 617 0
DWIDTH 6 0
BBX 6 7 0 0
BITMAP
34
28
FC
A8
A8
A8
FC
ENDCHAR
STARTCHAR 01C7
ENCODING 455
SWIDTH 617 0
DWIDTH 6 0
BBX 4 9 1 -2
BITMAP
90
90
90
90
90
90
D0
D0
70
ENDCHAR
STARTCHAR 01C8
ENCODING 456
SWIDTH 617 0
DWIDTH 6 0
BBX 4 9 1 -2
BITMAP
90
80
90
90
90
90
F0
10
70
ENDCHAR
STARTCHAR 01C9
ENCODING 457
SWIDTH 617 0
DWIDTH 6 0
BBX 4 9 1 -2
BITMAP
90
80
B0
90
90
90
90
10
60
ENDCHAR
STARTCHAR 01CA
ENCODING 458
SWIDTH 617 0
DWIDTH 6 0
BBX 5 9 0 -2
BITMAP
F8
F8
F8
F8
F8
F8
F8
68
38
ENDCHAR
STARTCHAR 01CB
ENCODING 459
SWIDTH 617 0
DWIDTH 6 0
BBX 4 9 1 -2
BITMAP
F0
E0
F0
F0
F0
F0
F0
10
70
ENDCHAR
STARTCHAR 01CC
ENCODING 460
SWIDTH 617 0
DWIDTH 6 0
BBX 6 9 0 -2
BITMAP
0C
00
E8
F8
F8
F8
F8
08
18
ENDCHAR
STARTCHAR 01CD
ENCODING 461
SWIDTH 617 0
DWIDTH 6 0
BBX 6 9 0 0
BITMAP
48
30
30
30
78
58
48
F8
CC
ENDCHAR
STARTCHAR 01CE
ENCODING 462
SWIDTH 617 0
DWIDTH 6 0
BBX 6 7 0 0
BITMAP
78
00
78
48
78
D8
7C
ENDCHAR
STARTCHAR 01CF
ENCODING 463
SWIDTH 617 0
DWIDTH 6 0
BBX 4 9 1 0
BITMAP
90
60
F0
F0
60
60
60
60
F0
ENDCHAR
STARTCHAR 01D0
ENCODING 464
SWIDTH 617 0
DWIDTH 6 0
BBX 4 7 1 0
BITMAP
F0
00
E0
60
60
60
F0
ENDCHAR
STARTCHAR 01D1
ENCODING 465
SWIDTH 617 0
DWIDTH 6 0
BBX 6 9 0 0
BITMAP
48
30
30
78
CC
CC
CC
C8
78
ENDCHAR
STARTCHAR 01D2
ENCODING 466
SWIDTH 617 0
DWIDTH 6 0
BBX 5 7 0 0
BITMAP
78
00
78
48
C8
48
78
ENDCHAR
STARTCHAR 01D3
ENCODING 467
SWIDTH 617 0
DWIDTH 6 0
BBX 5 9 0 0
BITMAP
48
30
C8
C8
C8
C8
C8
C8
78
ENDCHAR
STARTCHAR 01D4
ENCODING 468
SWIDTH 617 0
DWIDTH 6 0
BBX 5 7 1 0
BITMAP
F0
00
90
90
90
90
F8
ENDCHAR
STARTCHAR 01D5
ENCODING 469
SWIDTH 617 0
DWIDTH 6 0
BBX 5 10 0 0
BITMAP
78
78
78
C8
C8
C8
C8
C8
C8
78
ENDCHAR
STARTCHAR 01D6
ENCODING 470
SWIDTH 617 0
DWIDTH 6 0
BBX 5 8 1 0
BITMAP
F0
B0
00
90
90
90
90
F8
ENDCHAR
STARTCHAR 01D7
ENCODING 471
SWIDTH 617 0
DWIDTH 6 0
BBX 5 10 0 0
BITMAP
38
58
58
C8
C8
C8
C8
C8
C8
78
ENDCHAR
STARTCHAR 01D8
ENCODING 472
SWIDTH 617 0
DWIDTH 6 0
BBX 5 9 1 0
BITMAP
30
40
B0
00
90
90
90
90
F8
ENDCHAR
STARTCHAR 01D9
ENCODING 473
SWIDTH 617 0
DWIDTH 6 0
BBX 5 10 0 0
BITMAP
78
58
58
C8
C8
C8
C8
C8
C8
78
ENDCHAR
STARTCHAR 01DA
ENCODING 474
SWIDTH 617 0
DWIDTH 6 0
BBX 5 9 1 0
BITMAP
F0
00
B0
00
90
90
90
90
F8
ENDCHAR
STARTCHAR 01DB
ENCODING 475
SWIDTH 617 0
DWIDTH 6 0
BBX 5 10 0 0
BITMAP
60
58
58
C8
C8
C8
C8
C8
C8
78
ENDCHAR
STARTCHAR 01DC
ENCODING 476
SWIDTH 617 0
DWIDTH 6 0
BBX 5 9 1 0
BITMAP
C0
00
B0
00
90
90
90
90
F8
ENDCHAR
STARTCHAR 01E4
ENCODING 484
SWIDTH 617 0
DWIDTH 6 0
BBX 6 7 0 0
BITMAP
30
78
CC
DC
CC
DC
74
ENDCHAR
STARTCHAR 01E5
ENCODING 485
SWIDTH 617 0
DWIDTH 6 0
BBX 6 8 0 -2
BITMAP
0C
78
48
78
40
7C
FC
78
ENDCHAR
STARTCHAR 01E6
ENCODING 486
SWIDTH 617 0
DWIDTH 6 0
BBX 6 9 0 0
BITMAP
48
30
30
78
CC
DC
CC
CC
74
ENDCHAR
STARTCHAR 01E7
ENCODING 487
SWIDTH 617 0
DWIDTH 6 0
BBX 6 9 0 -2
BITMAP
78
0C
78
48
78
40
7C
CC
78
ENDCHAR
STARTCHAR 01EA
ENCODING 490
SWIDTH 617 0
DWIDTH 6 0
BBX 6 8 0 -1
BITMAP
30
78
CC
CC
CC
C8
78
38
ENDCHAR
STARTCHAR 01EB
ENCODING 491
SWIDTH 617 0
DWIDTH 6 0
BBX 5 6 0 -1
BITMAP
78
48
C8
48
78
30
ENDCHAR
STARTCHAR 01FA
ENCODING 506
SWIDTH 617 0
DWIDTH 6 0
BBX 6 11 0 0
BITMAP
10
00
30
30
30
30
78
58
48
F8
CC
ENDCHAR
STARTCHAR 01FB
ENCODING 507
SWIDTH 617 0
DWIDTH 6 0
BBX 6 9 0 0
BITMAP
10
20
30
00
78
48
78
D8
7C
ENDCHAR
STARTCHAR 01FC
ENCODING 508
SWIDTH 617 0
DWIDTH 6 0
BBX 6 9 0 0
BITMAP
08
10
3C
7C
50
58
50
F0
DC
ENDCHAR
STARTCHAR 01FD
ENCODING 509
SWIDTH 617 0
DWIDTH 6 0
BBX 6 7 0 0
BITMAP
30
00
78
B4
7C
B4
F8
ENDCHAR
STARTCHAR 01FE
ENCODING 510
SWIDTH 617 0
DWIDTH 6 0
BBX 6 10 0 -1
BITMAP
18
34
38
78
DC
DC
EC
C8
78
80
ENDCHAR
STARTCHAR 01FF
ENCODING 511
SWIDTH 617 0
DWIDTH 6 0
BBX 5 7 0 0
BITMAP
30
08
78
58
E8
68
78
ENDCHAR
STARTCHAR 0200
ENCODING 512
SWIDTH 617 0
DWIDTH 6 0
BBX 6 9 0 0
BITMAP
F0
50
30
30
78
58
48
F8
CC
ENDCHAR
STARTCHAR 0201
ENCODING 513
SWIDTH 617 0
DWIDTH 6 0
BBX 6 7 0 0
BITMAP
F0
00
78
48
78
D8
7C
ENDCHAR
STARTCHAR 0202
ENCODING 514
SWIDTH 617 0
DWIDTH 6 0
BBX 6 9 0 0
BITMAP
30
48
30
30
78
58
48
F8
CC
ENDCHAR
STARTCHAR 0203
ENCODING 515
SWIDTH 617 0
DWIDTH 6 0
BBX 6 7 0 0
BITMAP
78
00
78
48
78
D8
7C
ENDCHAR
STARTCHAR 0204
ENCODING 516
SWIDTH 617 0
DWIDTH 6 0
BBX 5 9 0 0
BITMAP
F0
50
78
78
40
78
40
40
78
ENDCHAR
STARTCHAR 0205
ENCODING 517
SWIDTH 617 0
DWIDTH 6 0
BBX 5 7 0 0
BITMAP
F0
28
78
48
F8
48
78
ENDCHAR
STARTCHAR 0206
ENCODING 518
SWIDTH 617 0
DWIDTH 6 0
BBX 4 9 1 0
BITMAP
60
90
F0
F0
80
F0
80
80
F0
ENDCHAR
STARTCHAR 0207
ENCODING 519
SWIDTH 617 0
DWIDTH 6 0
BBX 5 7 0 0
BITMAP
78
00
78
48
F8
48
78
ENDCHAR
STARTCHAR 0208
ENCODING 520
SWIDTH 617 0
DWIDTH 6 0
BBX 5 9 0 0
BITMAP
F0
50
78
78
30
30
30
30
78
ENDCHAR
STARTCHAR 0209
ENCODING 521
SWIDTH 617 0
DWIDTH 6 0
BBX 4 7 1 0
BITMAP
A0
50
E0
60
60
60
F0
ENDCHAR
STARTCHAR 020A
ENCODING 522
SWIDTH 617 0
DWIDTH 6 0
BBX 4 9 1 0
BITMAP
60
90
F0
F0
60
60
60
60
F0
ENDCHAR
STARTCHAR 020B
ENCODING 523
SWIDTH 617 0
DWIDTH 6 0
BBX 4 7 1 0
BITMAP
F0
00
E0
60
60
60
F0
ENDCHAR
STARTCHAR 020C
ENCODING 524
SWIDTH 617 0
DWIDTH 6 0
BBX 6 9 0 0
BITMAP
F0
50
30
78
CC
CC
CC
C8
78
ENDCHAR
STARTCHAR 020D
ENCODING 525
SWIDTH 617 0
DWIDTH 6 0
BBX 5 7 0 0
BITMAP
F0
20
78
48
C8
48
78
ENDCHAR
STARTCHAR 020E
ENCODING 526
SWIDTH 617 0
DWIDTH 6 0
BBX 6 9 0 0
BITMAP
30
48
30
78
CC
CC
CC
C8
78
ENDCHAR
STARTCHAR 020F
ENCODING 527
SWIDTH 617 0
DWIDTH 6 0
BBX 5 7 0 0
BITMAP
78
00
78
48
C8
48
78
ENDCHAR
STARTCHAR 0210
ENCODING 528
SWIDTH 617 0
DWIDTH 6 0
BBX 6 9 0 0
BITMAP
F0
50
78
7C
4C
78
58
4C
4C
ENDCHAR
STARTCHAR 0211
ENCODING 529
SWIDTH 617 0
DWIDTH 6 0
BBX 6 7 0 0
BITMAP
F0
28
F8
6C
60
60
F8
ENDCHAR
STARTCHAR 0212
ENCODING 530
SWIDTH 617 0
DWIDTH 6 0
BBX 5 9 1 0
BITMAP
60
90
F0
F8
98
F0
B0
98
98
ENDCHAR
STARTCHAR 0213
ENCODING 531
SWIDTH 617 0
DWIDTH 6 0
BBX 6 7 0 0
BITMAP
78
00
F8
6C
60
60
F8
ENDCHAR
STARTCHAR 0214
ENCODING 532
SWIDTH 617 0
DWIDTH 6 0
BBX 5 9 0 0
BITMAP
F0
70
C8
C8
C8
C8
C8
C8
78
ENDCHAR
STARTCHAR 0215
ENCODING 533
SWIDTH 617 0
DWIDTH 6 0
BBX 6 7 0 0
BITMAP
F0
20
48
48
48
48
7C
ENDCHAR
STARTCHAR 0216
ENCODING 534
SWIDTH 617 0
DWIDTH 6 0
BBX 5 9 0 0
BITMAP
30
48
C8
C8
C8
C8
C8
C8
78
ENDCHAR
STARTCHAR 0217
ENCODING 535
SWIDTH 617 0
DWIDTH 6 0
BBX 5 7 1 0
BITMAP
F0
00
90
90
90
90
F8
ENDCHAR
STARTCHAR 0218
ENCODING 536
SWIDTH 617 0
DWIDTH 6 0
BBX 6 11 0 -4
BITMAP
30
D8
C4
78
1C
CC
78
00
30
10
20
ENDCHAR
STARTCHAR 0219
ENCODING 537
SWIDTH 617 0
DWIDTH 6 0
BBX 4 9 1 -4
BITMAP
F0
80
F0
90
F0
00
60
20
40
ENDCHAR
STARTCHAR 021A
ENCODING 538
SWIDTH 617 0
DWIDTH 6 0
BBX 6 11 0 -4
BITMAP
FC
FC
30
30
30
30
30
00
30
10
20
ENDCHAR
STARTCHAR 021B
ENCODING 539
SWIDTH 617 0
DWIDTH 6 0
BBX 5 11 0 -4
BITMAP
20
20
F8
20
20
20
38
00
10
10
10
ENDCHAR
STARTCHAR 022A
ENCODING 554
SWIDTH 617 0
DWIDTH 6 0
BBX 6 10 0 0
BITMAP
78
78
78
30
78
CC
CC
CC
C8
78
ENDCHAR
STARTCHAR 022B
ENCODING 555
SWIDTH 617 0
DWIDTH 6 0
BBX 5 8 0 0
BITMAP
78
78
00
78
48
C8
48
78
ENDCHAR
STARTCHAR 022C
ENCODING 556
SWIDTH 617 0
DWIDTH 6 0
BBX 6 10 0 0
BITMAP
78
28
50
30
78
CC
CC
CC
C8
78
ENDCHAR
STARTCHAR 022D
ENCODING 557
SWIDTH 617 0
DWIDTH 6 0
BBX 5 8 0 0
BITMAP
78
78
00
78
48
C8
48
78
ENDCHAR
STARTCHAR 0230
ENCODING 560
SWIDTH 617 0
DWIDTH 6 0
BBX 6 10 0 0
BITMAP
78
30
30
30
78
CC
CC
CC
C8
78
ENDCHAR
STARTCHAR 0231
ENCODING 561
SWIDTH 617 0
DWIDTH 6 0
BBX 5 8 0 0
BITMAP
78
30
00
78
48
C8
48
78
ENDCHAR
STARTCHAR 0232
ENCODING 562
SWIDTH 617 0
DWIDTH 6 0
BBX 6 8 0 0
BITMAP
78
CC
48
78
30
30
30
30
ENDCHAR
STARTCHAR 0233
ENCODING 563
SWIDTH 617 0
DWIDTH 6 0
BBX 6 9 0 -2
BITMAP
78
00
CC
48
78
30
30
20
60
ENDCHAR
STARTCHAR 0237
ENCODING 567
SWIDTH 617 0
DWIDTH 6 0
BBX 3 7 1 -2
BITMAP
E0
60
60
60
60
60
C0
ENDCHAR
STARTCHAR 0244
ENCODING 580
SWIDTH 617 0
DWIDTH 6 0
BBX 6 7 0 0
BITMAP
C8
C8
C8
FC
C8
C8
78
ENDCHAR
STARTCHAR 0259
ENCODING 601
SWIDTH 617 0
DWIDTH 6 0
BBX 5 5 0 0
BITMAP
78
C8
F8
48
78
ENDCHAR
STARTCHAR 0268
ENCODING 616
SWIDTH 617 0
DWIDTH 6 0
BBX 4 7 1 0
BITMAP
20
00
E0
60
F0
60
F0
ENDCHAR
STARTCHAR 026A
ENCODING 618
SWIDTH 617 0
DWIDTH 6 0
BBX 4 5 1 0
BITMAP
F0
60
60
60
F0
ENDCHAR
STARTCHAR 0272
ENCODING 626
SWIDTH 617 0
DWIDTH 6 0
BBX 6 7 -1 -2
BITMAP
3C
24
24
24
24
20
E0
ENDCHAR
STARTCHAR 0289
ENCODING 649
SWIDTH 617 0
DWIDTH 6 0
BBX 6 5 0 0
BITMAP
48
48
FC
48
7C
ENDCHAR
STARTCHAR 02B9
ENCODING 697
SWIDTH 617 0
DWIDTH 6 0
BBX 2 1 2 6
BITMAP
C0
ENDCHAR
STARTCHAR 02BA
ENCODING 698
SWIDTH 617 0
DWIDTH 6 0
BBX 4 1 1 6
BITMAP
F0
ENDCHAR
STARTCHAR 02BC
ENCODING 700
SWIDTH 617 0
DWIDTH 6 0
BBX 2 3 2 5
BITMAP
C0
40
80
ENDCHAR
STARTCHAR 02C6
ENCODING 710
SWIDTH 617 0
DWIDTH 6 0
BBX 4 1 1 6
BITMAP
F0
ENDCHAR
STARTCHAR 02C7
ENCODING 711
SWIDTH 617 0
DWIDTH 6 0
BBX 4 1 1 6
BITMAP
F0
ENDCHAR
STARTCHAR 02C9
ENCODING 713
SWIDTH 617 0
DWIDTH 6 0
BBX 3 1 1 6
BITMAP
E0
ENDCHAR
STARTCHAR 02CD
ENCODING 717
SWIDTH 617 0
DWIDTH 6 0
BBX 4 1 1 -2
BITMAP
F0
ENDCHAR
STARTCHAR 02D8
ENCODING 728
SWIDTH 617 0
DWIDTH 6 0
BBX 4 1 1 6
BITMAP
F0
ENDCHAR
STARTCHAR 02D9
ENCODING 729
SWIDTH 617 0
DWIDTH 6 0
BBX 2 1 2 6
BITMAP
C0
ENDCHAR
STARTCHAR 02DA
ENCODING 730
SWIDTH 617 0
DWIDTH 6 0
BBX 2 2 2 6
BITMAP
80
C0
ENDCHAR
STARTCHAR 02DB
ENCODING 731
SWIDTH 617 0
DWIDTH 6 0
BBX 2 1 2 -1
BITMAP
C0
ENDCHAR
STARTCHAR 02DC
ENCODING 732
SWIDTH 617 0
DWIDTH 6 0
BBX 4 1 1 6
BITMAP
F0
ENDCHAR
STARTCHAR 02DD
ENCODING 733
SWIDTH 617 0
DWIDTH 6 0
BBX 4 1 1 6
BITMAP
F0
ENDCHAR
STARTCHAR 0300
ENCODING 768
SWIDTH 0 0
DWIDTH 0 0
BBX 2 1 2 6
BITMAP
C0
ENDCHAR
STARTCHAR 0301
ENCODING 769
SWIDTH 0 0
DWIDTH 0 0
BBX 2 1 2 6
BITMAP
C0
ENDCHAR
STARTCHAR 0302
ENCODING 770
SWIDTH 0 0
DWIDTH 0 0
BBX 4 1 1 6
BITMAP
F0
ENDCHAR
STARTCHAR 0303
ENCODING 771
SWIDTH 0 0
DWIDTH 0 0
BBX 4 1 1 6
BITMAP
F0
ENDCHAR
STARTCHAR 0304
ENCODING 772
SWIDTH 0 0
DWIDTH 0 0
BBX 4 1 1 6
BITMAP
F0
ENDCHAR
STARTCHAR 0306
ENCODING 774
SWIDTH 0 0
DWIDTH 0 0
BBX 4 1 1 6
BITMAP
F0
ENDCHAR
STARTCHAR 0307
ENCODING 775
SWIDTH 0 0
DWIDTH 0 0
BBX 2 1 2 6
BITMAP
C0
ENDCHAR
STARTCHAR 0308
ENCODING 776
SWIDTH 0 0
DWIDTH 0 0
BBX 4 1 1 6
BITMAP
B0
ENDCHAR
STARTCHAR 0309
ENCODING 777
SWIDTH 0 0
DWIDTH 0 0
BBX 2 3 2 5
BITMAP
C0
40
80
ENDCHAR
STARTCHAR 030A
ENCODING 778
SWIDTH 0 0
DWIDTH 0 0
BBX 2 2 2 6
BITMAP
80
C0
ENDCHAR
STARTCHAR 030B
ENCODING 779
SWIDTH 0 0
DWIDTH 0 0
BBX 4 1 1 6
BITMAP
F0
ENDCHAR
STARTCHAR 030C
ENCODING 780
SWIDTH 0 0
DWIDTH 0 0
BBX 4 1 1 6
BITMAP
F0
ENDCHAR
STARTCHAR 030F
ENCODING 783
SWIDTH 0 0
DWIDTH 0 0
BBX 4 1 1 6
BITMAP
F0
ENDCHAR
STARTCHAR 0311
ENCODING 785
SWIDTH 0 0
DWIDTH 0 0
BBX 4 1 1 6
BITMAP
F0
ENDCHAR
STARTCHAR 0312
ENCODING 786
SWIDTH 0 0
DWIDTH 0 0
BBX 2 3 2 6
BITMAP
40
80
C0
ENDCHAR
STARTCHAR 0313
ENCODING 787
SWIDTH 0 0
DWIDTH 0 0
BBX 2 3 2 6
BITMAP
C0
C0
80
ENDCHAR
STARTCHAR 031B
ENCODING 795
SWIDTH 0 0
DWIDTH 0 0
BBX 2 2 2 4
BITMAP
40
80
ENDCHAR
STARTCHAR 0323
ENCODING 803
SWIDTH 0 0
DWIDTH 0 0
BBX 2 1 2 -2
BITMAP
C0
ENDCHAR
STARTCHAR 0324
ENCODING 804
SWIDTH 0 0
DWIDTH 0 0
BBX 4 1 1 -2
BITMAP
B0
ENDCHAR
STARTCHAR 0326
ENCODING 806
SWIDTH 0 0
DWIDTH 0 0
BBX 2 3 2 -4
BITMAP
C0
40
80
ENDCHAR
STARTCHAR 0327
ENCODING 807
SWIDTH 0 0
DWIDTH 0 0
BBX 2 2 2 -2
BITMAP
40
C0
ENDCHAR
STARTCHAR 0328
ENCODING 808
SWIDTH 0 0
DWIDTH 0 0
BBX 2 1 2 -1
BITMAP
C0
ENDCHAR
STARTCHAR 032E
ENCODING 814
SWIDTH 0 0
DWIDTH 0 0
BBX 4 1 1 -2
BITMAP
F0
ENDCHAR
STARTCHAR 0330
ENCODING 816
SWIDTH 0 0
DWIDTH 0 0
BBX 4 1 1 -2
BITMAP
F0
ENDCHAR
STARTCHAR 0331
ENCODING 817
SWIDTH 0 0
DWIDTH 0 0
BBX 4 1 1 -2
BITMAP
F0
ENDCHAR
STARTCHAR 0335
ENCODING 821
SWIDTH 0 0
DWIDTH 0 0
BBX 4 1 1 3
BITMAP
F0
ENDCHAR
STARTCHAR 0336
ENCODING 822
SWIDTH 0 0
DWIDTH 0 0
BBX 6 1 0 3
BITMAP
FC
ENDCHAR
STARTCHAR 0337
ENCODING 823
SWIDTH 0 0
DWIDTH 0 0
BBX 4 3 1 2
BITMAP
10
60
80
ENDCHAR
STARTCHAR 0338
ENCODING 824
SWIDTH 0 0
DWIDTH 0 0
BBX 4 6 1 0
BITMAP
10
10
20
40
40
80
ENDCHAR
STARTCHAR 0394
ENCODING 916
SWIDTH 617 0
DWIDTH 6 0
BBX 6 7 0 0
BITMAP
30
30
78
58
48
C8
FC
ENDCHAR
STARTCHAR 03A9
ENCODING 937
SWIDTH 617 0
DWIDTH 6 0
BBX 6 7 0 0
BITMAP
30
F8
CC
CC
CC
48
FC
ENDCHAR
STARTCHAR 03BC
ENCODING 956
SWIDTH 617 0
DWIDTH 6 0
BBX 5 7 1 -2
BITMAP
90
90
90
90
F8
80
80
ENDCHAR
STARTCHAR 03C0
ENCODING 960
SWIDTH 617 0
DWIDTH 6 0
BBX 6 5 0 0
BITMAP
FC
58
58
58
C8
ENDCHAR
STARTCHAR 1E24
ENCODING 7716
SWIDTH 617 0
DWIDTH 6 0
BBX 4 9 1 -2
BITMAP
90
90
90
F0
90
90
90
00
60
ENDCHAR
STARTCHAR 1E25
ENCODING 7717
SWIDTH 617 0
DWIDTH 6 0
BBX 4 9 1 -2
BITMAP
80
80
F0
90
90
90
90
00
60
ENDCHAR
STARTCHAR 1E62
ENCODING 7778
SWIDTH 617 0
DWIDTH 6 0
BBX 6 9 0 -2
BITMAP
30
D8
C4
78
1C
CC
78
00
30
ENDCHAR
STARTCHAR 1E63
ENCODING 7779
SWIDTH 617 0
DWIDTH 6 0
BBX 4 7 1 -2
BITMAP
F0
80
F0
90
F0
00
60
ENDCHAR
STARTCHAR 1E6C
ENCODING 7788
SWIDTH 617 0
DWIDTH 6 0
BBX 6 9 0 -2
BITMAP
FC
FC
30
30
30
30
30
00
30
ENDCHAR
STARTCHAR 1E6D
ENCODING 7789
SWIDTH 617 0
DWIDTH 6 0
BBX 5 9 0 -2
BITMAP
20
20
F8
20
20
20
38
00
10
ENDCHAR
STARTCHAR 1E80
ENCODING 7808
SWIDTH 617 0
DWIDTH 6 0
BBX 6 9 0 0
BITMAP
60
20
B4
BC
FC
F8
F8
78
58
ENDCHAR
STARTCHAR 1E81
ENCODING 7809
SWIDTH 617 0
DWIDTH 6 0
BBX 6 7 0 0
BITMAP
60
10
B4
BC
F8
78
58
ENDCHAR
STARTCHAR 1E82
ENCODING 7810
SWIDTH 617 0
DWIDTH 6 0
BBX 6 9 0 0
BITMAP
18
30
B4
BC
FC
F8
F8
78
58
ENDCHAR
STARTCHAR 1E83
ENCODING 7811
SWIDTH 617 0
DWIDTH 6 0
BBX 6 7 0 0
BITMAP
30
00
B4
BC
F8
78
58
ENDCHAR
STARTCHAR 1E84
ENCODING 7812
SWIDTH 617 0
DWIDTH 6 0
BBX 6 9 0 0
BITMAP
58
58
B4
BC
FC
F8
F8
78
58
ENDCHAR
STARTCHAR 1E85
ENCODING 7813
SWIDTH 617 0
DWIDTH 6 0
BBX 6 7 0 0
BITMAP
58
00
B4
BC
F8
78
58
ENDCHAR
STARTCHAR 1E9E
ENCODING 7838
SWIDTH 617 0
DWIDTH 6 0
BBX 6 7 0 0
BITMAP
30
68
C8
D8
CC
CC
D8
ENDCHAR
STARTCHAR 1EA0
ENCODING 7840
SWIDTH 617 0
DWIDTH 6 0
BBX 6 9 0 -2
BITMAP
30
30
78
58
48
F8
CC
00
30
ENDCHAR
STARTCHAR 1EA1
ENCODING 7841
SWIDTH 617 0
DWIDTH 6 0
BBX 6 7 0 -2
BITMAP
78
48
78
D8
7C
00
30
ENDCHAR
STARTCHAR 1EA2
ENCODING 7842
SWIDTH 617 0
DWIDTH 6 0
BBX 6 10 0 0
BITMAP
20
10
10
30
30
78
58
48
F8
CC
ENDCHAR
STARTCHAR 1EA3
ENCODING 7843
SWIDTH 617 0
DWIDTH 6 0
BBX 6 8 0 0
BITMAP
30
10
20
78
48
78
D8
7C
ENDCHAR
STARTCHAR 1EA4
ENCODING 7844
SWIDTH 617 0
DWIDTH 6 0
BBX 6 10 0 0
BITMAP
10
30
48
30
30
78
58
48
F8
CC
ENDCHAR
STARTCHAR 1EA5
ENCODING 7845
SWIDTH 617 0
DWIDTH 6 0
BBX 6 9 0 0
BITMAP
18
20
70
08
78
48
78
D8
7C
ENDCHAR
STARTCHAR 1EA6
ENCODING 7846
SWIDTH 617 0
DWIDTH 6 0
BBX 6 10 0 0
BITMAP
60
30
48
30
30
78
58
48
F8
CC
ENDCHAR
STARTCHAR 1EA7
ENCODING 7847
SWIDTH 617 0
DWIDTH 6 0
BBX 6 9 0 0
BITMAP
60
00
70
08
78
48
78
D8
7C
ENDCHAR
STARTCHAR 1EA8
ENCODING 7848
SWIDTH 617 0
DWIDTH 6 0
BBX 6 11 0 0
BITMAP
30
10
30
48
30
30
78
58
48
F8
CC
ENDCHAR
STARTCHAR 1EA9
ENCODING 7849
SWIDTH 617 0
DWIDTH 6 0
BBX 6 10 0 0
BITMAP
20
10
00
70
08
78
48
78
D8
7C
ENDCHAR
STARTCHAR 1EAA
ENCODING 7850
SWIDTH 617 0
DWIDTH 6 0
BBX 6 10 0 0
BITMAP
78
30
48
30
30
78
58
48
F8
CC
ENDCHAR
STARTCHAR 1EAB
ENCODING 7851
SWIDTH 617 0
DWIDTH 6 0
BBX 6 9 0 0
BITMAP
68
10
70
08
78
48
78
D8
7C
ENDCHAR
STARTCHAR 1EAC
ENCODING 7852
SWIDTH 617 0
DWIDTH 6 0
BBX 6 11 0 -2
BITMAP
30
58
30
30
78
58
48
F8
CC
00
30
ENDCHAR
STARTCHAR 1EAD
ENCODING 7853
SWIDTH 617 0
DWIDTH 6 0
BBX 6 9 0 -2
BITMAP
70
08
78
48
78
D8
7C
00
30
ENDCHAR
STARTCHAR 1EAE
ENCODING 7854
SWIDTH 617 0
DWIDTH 6 0
BBX 6 10 0 0
BITMAP
18
68
30
30
30
78
58
48
F8
CC
ENDCHAR
STARTCHAR 1EAF
ENCODING 7855
SWIDTH 617 0
DWIDTH 6 0
BBX 6 9 0 0
BITMAP
10
20
78
00
78
48
78
D8
7C
ENDCHAR
STARTCHAR 1EB0
ENCODING 7856
SWIDTH 617 0
DWIDTH 6 0
BBX 6 10 0 0
BITMAP
60
48
30
30
30
78
58
48
F8
CC
ENDCHAR
STARTCHAR 1EB1
ENCODING 7857
SWIDTH 617 0
DWIDTH 6 0
BBX 6 9 0 0
BITMAP
60
20
78
00
78
48
78
D8
7C
ENDCHAR
STARTCHAR 1EB2
ENCODING 7858
SWIDTH 617 0
DWIDTH 6 0
BBX 6 11 0 0
BITMAP
30
10
48
30
30
30
78
58
48
F8
CC
ENDCHAR
STARTCHAR 1EB3
ENCODING 7859
SWIDTH 617 0
DWIDTH 6 0
BBX 6 9 0 0
BITMAP
30
20
78
00
78
48
78
D8
7C
ENDCHAR
STARTCHAR 1EB4
ENCODING 7860
SWIDTH 617 0
DWIDTH 6 0
BBX 6 10 0 0
BITMAP
78
48
30
30
30
78
58
48
F8
CC
ENDCHAR
STARTCHAR 1EB5
ENCODING 7861
SWIDTH 617 0
DWIDTH 6 0
BBX 6 9 0 0
BITMAP
78
00
78
00
78
48
78
D8
7C
ENDCHAR
STARTCHAR 1EB6
ENCODING 7862
SWIDTH 617 0
DWIDTH 6 0
BBX 6 11 0 -2
BITMAP
48
30
30
30
78
58
48
F8
CC
00
30
ENDCHAR
STARTCHAR 1EB7
ENCODING 7863
SWIDTH 617 0
DWIDTH 6 0
BBX 6 9 0 -2
BITMAP
78
00
78
48
78
D8
7C
00
30
ENDCHAR
STARTCHAR 1EB8
ENCODING 7864
SWIDTH 617 0
DWIDTH 6 0
BBX 4 9 1 -2
BITMAP
F0
F0
80
F0
80
80
F0
00
60
ENDCHAR
STARTCHAR 1EB9
ENCODING 7865
SWIDTH 617 0
DWIDTH 6 0
BBX 5 7 0 -2
BITMAP
78
48
F8
48
78
00
30
ENDCHAR
STARTCHAR 1EBA
ENCODING 7866
SWIDTH 617 0
DWIDTH 6 0
BBX 4 10 1 0
BITMAP
40
20
20
F0
F0
80
F0
80
80
F0
ENDCHAR
STARTCHAR 1EBB
ENCODING 7867
SWIDTH 617 0
DWIDTH 6 0
BBX 5 8 0 0
BITMAP
30
10
20
78
48
F8
48
78
ENDCHAR
STARTCHAR 1EBC
ENCODING 7868
SWIDTH 617 0
DWIDTH 6 0
BBX 4 9 1 0
BITMAP
50
A0
F0
F0
80
F0
80
80
F0
ENDCHAR
STARTCHAR 1EBD
ENCODING 7869
SWIDTH 617 0
DWIDTH 6 0
BBX 5 7 0 0
BITMAP
78
00
78
48
F8
48
78
ENDCHAR
STARTCHAR 1EBE
ENCODING 7870
SWIDTH 617 0
DWIDTH 6 0
BBX 4 10 1 0
BITMAP
30
60
90
F0
F0
80
F0
80
80
F0
ENDCHAR
STARTCHAR 1EBF
ENCODING 7871
SWIDTH 617 0
DWIDTH 6 0
BBX 5 9 0 0
BITMAP
18
00
30
48
78
48
F8
48
78
ENDCHAR
STARTCHAR 1EC0
ENCODING 7872
SWIDTH 617 0
DWIDTH 6 0
BBX 4 10 1 0
BITMAP
C0
60
90
F0
F0
80
F0
80
80
F0
ENDCHAR
STARTCHAR 1EC1
ENCODING 7873
SWIDTH 617 0
DWIDTH 6 0
BBX 5 9 0 0
BITMAP
60
00
30
48
78
48
F8
48
78
ENDCHAR
STARTCHAR 1EC2
ENCODING 7874
SWIDTH 617 0
DWIDTH 6 0
BBX 4 11 1 0
BITMAP
60
20
60
90
F0
F0
80
F0
80
80
F0
ENDCHAR
STARTCHAR 1EC3
ENCODING 7875
SWIDTH 617 0
DWIDTH 6 0
BBX 5 10 0 0
BITMAP
20
10
00
30
48
78
48
F8
48
78
ENDCHAR
STARTCHAR 1EC4
ENCODING 7876
SWIDTH 617 0
DWIDTH 6 0
BBX 4 10 1 0
BITMAP
F0
60
90
F0
F0
80
F0
80
80
F0
ENDCHAR
STARTCHAR 1EC5
ENCODING 7877
SWIDTH 617 0
DWIDTH 6 0
BBX 5 9 0 0
BITMAP
68
10
30
48
78
48
F8
48
78
ENDCHAR
STARTCHAR 1EC6
ENCODING 7878
SWIDTH 617 0
DWIDTH 6 0
BBX 4 11 1 -2
BITMAP
60
90
F0
F0
80
F0
80
80
F0
00
60
ENDCHAR
STARTCHAR 1EC7
ENCODING 7879
SWIDTH 617 0
DWIDTH 6 0
BBX 5 9 0 -2
BITMAP
30
48
78
48
F8
48
78
00
30
ENDCHAR
STARTCHAR 1EC8
ENCODING 7880
SWIDTH 617 0
DWIDTH 6 0
BBX 4 10 1 0
BITMAP
40
20
20
F0
F0
60
60
60
60
F0
ENDCHAR
STARTCHAR 1EC9
ENCODING 7881
SWIDTH 617 0
DWIDTH 6 0
BBX 4 8 1 0
BITMAP
60
20
20
E0
60
60
60
F0
ENDCHAR
STARTCHAR 1ECA
ENCODING 7882
SWIDTH 617 0
DWIDTH 6 0
BBX 4 9 1 -2
BITMAP
F0
F0
60
60
60
60
F0
00
60
ENDCHAR
STARTCHAR 1ECB
ENCODING 7883
SWIDTH 617 0
DWIDTH 6 0
BBX 4 9 1 -2
BITMAP
20
00
E0
60
60
60
F0
00
60
ENDCHAR
STARTCHAR 1ECC
ENCODING 7884
SWIDTH 617 0
DWIDTH 6 0
BBX 6 9 0 -2
BITMAP
30
78
CC
CC
CC
C8
78
00
30
ENDCHAR
STARTCHAR 1ECD
ENCODING 7885
SWIDTH 617 0
DWIDTH 6 0
BBX 5 7 0 -2
BITMAP
78
48
C8
48
78
00
30
ENDCHAR
STARTCHAR 1ECE
ENCODING 7886
SWIDTH 617 0
DWIDTH 6 0
BBX 6 10 0 0
BITMAP
20
10
10
30
78
CC
CC
CC
C8
78
ENDCHAR
STARTCHAR 1ECF
ENCODING 7887
SWIDTH 617 0
DWIDTH 6 0
BBX 5 8 0 0
BITMAP
30
10
20
78
48
C8
48
78
ENDCHAR
STARTCHAR 1ED0
ENCODING 7888
SWIDTH 617 0
DWIDTH 6 0
BBX 6 10 0 0
BITMAP
10
30
48
30
78
CC
CC
CC
C8
78
ENDCHAR
STARTCHAR 1ED1
ENCODING 7889
SWIDTH 617 0
DWIDTH 6 0
BBX 5 9 0 0
BITMAP
18
20
30
48
78
48
C8
48
78
ENDCHAR
STARTCHAR 1ED2
ENCODING 7890
SWIDTH 617 0
DWIDTH 6 0
BBX 6 10 0 0
BITMAP
60
30
48
30
78
CC
CC
CC
C8
78
ENDCHAR
STARTCHAR 1ED3
ENCODING 7891
SWIDTH 617 0
DWIDTH 6 0
BBX 5 9 0 0
BITMAP
60
00
30
48
78
48
C8
48
78
ENDCHAR
STARTCHAR 1ED4
ENCODING 7892
SWIDTH 617 0
DWIDTH 6 0
BBX 6 11 0 0
BITMAP
30
10
30
48
30
78
CC
CC
CC
C8
78
ENDCHAR
STARTCHAR 1ED5
ENCODING 7893
SWIDTH 617 0
DWIDTH 6 0
BBX 5 10 0 0
BITMAP
20
10
00
30
48
78
48
C8
48
78
ENDCHAR
STARTCHAR 1ED6
ENCODING 7894
SWIDTH 617 0
DWIDTH 6 0
BBX 6 10 0 0
BITMAP
78
30
48
30
78
CC
CC
CC
C8
78
ENDCHAR
STARTCHAR 1ED7
ENCODING 7895
SWIDTH 617 0
DWIDTH 6 0
BBX 5 9 0 0
BITMAP
68
10
30
48
78
48
C8
48
78
ENDCHAR
STARTCHAR 1ED8
ENCODING 7896
SWIDTH 617 0
DWIDTH 6 0
BBX 6 11 0 -2
BITMAP
30
58
30
78
CC
CC
CC
C8
78
00
30
ENDCHAR
STARTCHAR 1ED9
ENCODING 7897
SWIDTH 617 0
DWIDTH 6 0
BBX 5 9 0 -2
BITMAP
30
48
78
48
C8
48
78
00
30
ENDCHAR
STARTCHAR 1EDA
ENCODING 7898
SWIDTH 617 0
DWIDTH 6 0
BBX 6 9 0 0
BITMAP
18
34
3C
78
CC
CC
CC
C8
78
ENDCHAR
STARTCHAR 1EDB
ENCODING 7899
SWIDTH 617 0
DWIDTH 6 0
BBX 6 7 0 0
BITMAP
30
04
78
48
C8
48
78
ENDCHAR
STARTCHAR 1EDC
ENCODING 7900
SWIDTH 617 0
DWIDTH 6 0
BBX 6 9 0 0
BITMAP
60
24
3C
78
CC
CC
CC
C8
78
ENDCHAR
STARTCHAR 1EDD
ENCODING 7901
SWIDTH 617 0
DWIDTH 6 0
BBX 6 7 0 0
BITMAP
60
14
78
48
C8
48
78
ENDCHAR
STARTCHAR 1EDE
ENCODING 7902
SWIDTH 617 0
DWIDTH 6 0
BBX 6 10 0 0
BITMAP
20
10
14
3C
78
CC
CC
CC
C8
78
ENDCHAR
STARTCHAR 1EDF
ENCODING 7903
SWIDTH 617 0
DWIDTH 6 0
BBX 6 8 0 0
BITMAP
30
10
24
78
48
C8
48
78
ENDCHAR
STARTCHAR 1EE0
ENCODING 7904
SWIDTH 617 0
DWIDTH 6 0
BBX 6 9 0 0
BITMAP
28
54
34
78
CC
CC
CC
C8
78
ENDCHAR
STARTCHAR 1EE1
ENCODING 7905
SWIDTH 617 0
DWIDTH 6 0
BBX 6 7 0 0
BITMAP
78
04
7C
48
C8
48
78
ENDCHAR
STARTCHAR 1EE2
ENCODING 7906
SWIDTH 617 0
DWIDTH 6 0
BBX 6 10 0 -2
BITMAP
04
3C
78
CC
CC
CC
C8
78
00
30
ENDCHAR
STARTCHAR 1EE3
ENCODING 7907
SWIDTH 617 0
DWIDTH 6 0
BBX 6 8 0 -2
BITMAP
04
78
48
C8
48
78
00
30
ENDCHAR
STARTCHAR 1EE4
ENCODING 7908
SWIDTH 617 0
DWIDTH 6 0
BBX 5 9 0 -2
BITMAP
C8
C8
C8
C8
C8
C8
78
00
30
ENDCHAR
STARTCHAR 1EE5
ENCODING 7909
SWIDTH 617 0
DWIDTH 6 0
BBX 5 7 1 -2
BITMAP
90
90
90
90
F8
00
60
ENDCHAR
STARTCHAR 1EE6
ENCODING 7910
SWIDTH 617 0
DWIDTH 6 0
BBX 5 10 0 0
BITMAP
20
10
10
C8
C8
C8
C8
C8
C8
78
ENDCHAR
STARTCHAR 1EE7
ENCODING 7911
SWIDTH 617 0
DWIDTH 6 0
BBX 5 8 1 0
BITMAP
60
20
40
90
90
90
90
F8
ENDCHAR
STARTCHAR 1EE8
ENCODING 7912
SWIDTH 617 0
DWIDTH 6 0
BBX 7 9 0 0
BITMAP
18
36
CC
C8
C8
C8
C8
C8
78
ENDCHAR
STARTCHAR 1EE9
ENCODING 7913
SWIDTH 617 0
DWIDTH 6 0
BBX 5 7 1 0
BITMAP
60
08
90
90
90
90
F8
ENDCHAR
STARTCHAR 1EEA
ENCODING 7914
SWIDTH 617 0
DWIDTH 6 0
BBX 7 9 0 0
BITMAP
60
36
CC
C8
C8
C8
C8
C8
78
ENDCHAR
STARTCHAR 1EEB
ENCODING 7915
SWIDTH 617 0
DWIDTH 6 0
BBX 5 7 1 0
BITMAP
C0
28
90
90
90
90
F8
ENDCHAR
STARTCHAR 1EEC
ENCODING 7916
SWIDTH 617 0
DWIDTH 6 0
BBX 7 10 0 0
BITMAP
20
10
16
CC
C8
C8
C8
C8
C8
78
ENDCHAR
STARTCHAR 1EED
ENCODING 7917
SWIDTH 617 0
DWIDTH 6 0
BBX 5 8 1 0
BITMAP
60
20
48
90
90
90
90
F8
ENDCHAR
STARTCHAR 1EEE
ENCODING 7918
SWIDTH 617 0
DWIDTH 6 0
BBX 7 9 0 0
BITMAP
28
56
CC
C8
C8
C8
C8
C8
78
ENDCHAR
STARTCHAR 1EEF
ENCODING 7919
SWIDTH 617 0
DWIDTH 6 0
BBX 5 7 1 0
BITMAP
F0
08
90
90
90
90
F8
ENDCHAR
STARTCHAR 1EF0
ENCODING 7920
SWIDTH 617 0
DWIDTH 6 0
BBX 7 10 0 -2
BITMAP
06
CC
C8
C8
C8
C8
C8
78
00
30
ENDCHAR
STARTCHAR 1EF1
ENCODING 7921
SWIDTH 617 0
DWIDTH 6 0
BBX 5 8 1 -2
BITMAP
08
90
90
90
90
F8
00
60
ENDCHAR
STARTCHAR 1EF2
ENCODING 7922
SWIDTH 617 0
DWIDTH 6 0
BBX 6 9 0 0
BITMAP
60
30
CC
48
78
30
30
30
30
ENDCHAR
STARTCHAR 1EF3
ENCODING 7923
SWIDTH 617 0
DWIDTH 6 0
BBX 6 9 0 -2
BITMAP
20
10
CC
48
78
30
30
20
60
ENDCHAR
STARTCHAR 1EF4
ENCODING 7924
SWIDTH 617 0
DWIDTH 6 0
BBX 6 9 0 -2
BITMAP
CC
48
78
30
30
30
30
00
30
ENDCHAR
STARTCHAR 1EF5
ENCODING 7925
SWIDTH 617 0
DWIDTH 6 0
BBX 6 7 0 -2
BITMAP
CC
48
78
30
30
20
6C
ENDCHAR
STARTCHAR 1EF6
ENCODING 7926
SWIDTH 617 0
DWIDTH 6 0
BBX 6 10 0 0
BITMAP
20
10
10
CC
48
78
30
30
30
30
ENDCHAR
STARTCHAR 1EF7
ENCODING 7927
SWIDTH 617 0
DWIDTH 6 0
BBX 6 10 0 -2
BITMAP
30
10
20
CC
48
78
30
30
20
60
ENDCHAR
STARTCHAR 1EF8
ENCODING 7928
SWIDTH 617 0
DWIDTH 6 0
BBX 6 9 0 0
BITMAP
28
50
CC
48
78
30
30
30
30
ENDCHAR
STARTCHAR 1EF9
ENCODING 7929
SWIDTH 617 0
DWIDTH 6 0
BBX 6 9 0 -2
BITMAP
78
00
CC
48
78
30
30
20
60
ENDCHAR
STARTCHAR 2009
ENCODING 8201
SWIDTH 617 0
DWIDTH 6 0
BBX 0 0 0 0
BITMAP
ENDCHAR
STARTCHAR 2010
ENCODING 8208
SWIDTH 617 0
DWIDTH 6 0
BBX 2 1 2 2
BITMAP
C0
ENDCHAR
STARTCHAR 2011
ENCODING 8209
SWIDTH 617 0
DWIDTH 6 0
BBX 2 1 2 2
BITMAP
C0
ENDCHAR
STARTCHAR 2013
ENCODING 8211
SWIDTH 617 0
DWIDTH 6 0
BBX 4 1 1 2
BITMAP
F0
ENDCHAR
STARTCHAR 2014
ENCODING 8212
SWIDTH 617 0
DWIDTH 6 0
BBX 6 1 0 2
BITMAP
FC
ENDCHAR
STARTCHAR 2018
ENCODING 8216
SWIDTH 617 0
DWIDTH 6 0
BBX 2 4 2 3
BITMAP
40
80
C0
C0
ENDCHAR
STARTCHAR 2019
ENCODING 8217
SWIDTH 617 0
DWIDTH 6 0
BBX 2 4 2 3
BITMAP
C0
C0
40
80
ENDCHAR
STARTCHAR 201A
ENCODING 8218
SWIDTH 617 0
DWIDTH 6 0
BBX 2 4 2 -2
BITMAP
C0
C0
40
80
ENDCHAR
STARTCHAR 201C
ENCODING 8220
SWIDTH 617 0
DWIDTH 6 0
BBX 4 4 1 3
BITMAP
D0
A0
F0
F0
ENDCHAR
STARTCHAR 201D
ENCODING 8221
SWIDTH 617 0
DWIDTH 6 0
BBX 4 4 1 3
BITMAP
F0
F0
50
A0
ENDCHAR
STARTCHAR 201E
ENCODING 8222
SWIDTH 617 0
DWIDTH 6 0
BBX 4 4 1 -2
BITMAP
F0
F0
50
A0
ENDCHAR
STARTCHAR 2020
ENCODING 8224
SWIDTH 617 0
DWIDTH 6 0
BBX 5 9 0 -2
BITMAP
30
20
F8
20
20
20
20
20
30
ENDCHAR
STARTCHAR 2021
ENCODING 8225
SWIDTH 617 0
DWIDTH 6 0
BBX 5 9 0 -2
BITMAP
30
20
F8
20
30
20
F8
20
30
ENDCHAR
STARTCHAR 2022
ENCODING 8226
SWIDTH 617 0
DWIDTH 6 0
BBX 4 3 1 2
BITMAP
60
F0
60
ENDCHAR
STARTCHAR 2026
ENCODING 8230
SWIDTH 617 0
DWIDTH 6 0
BBX 5 2 0 0
BITMAP
F8
F8
ENDCHAR
STARTCHAR 2030
ENCODING 8240
SWIDTH 617 0
DWIDTH 6 0
BBX 6 7 0 0
BITMAP
40
A0
A0
FC
78
B4
78
ENDCHAR
STARTCHAR 2032
ENCODING 8242
SWIDTH 617 0
DWIDTH 6 0
BBX 2 2 2 5
BITMAP
C0
80
ENDCHAR
STARTCHAR 2033
ENCODING 8243
SWIDTH 617 0
DWIDTH 6 0
BBX 4 2 1 5
BITMAP
70
A0
ENDCHAR
STARTCHAR 2039
ENCODING 8249
SWIDTH 617 0
DWIDTH 6 0
BBX 2 3 2 2
BITMAP
40
80
C0
ENDCHAR
STARTCHAR 203A
ENCODING 8250
SWIDTH 617 0
DWIDTH 6 0
BBX 2 3 2 2
BITMAP
80
40
C0
ENDCHAR
STARTCHAR 2044
ENCODING 8260
SWIDTH 617 0
DWIDTH 6 0
BBX 6 7 0 0
BITMAP
04
08
10
00
20
40
80
ENDCHAR
STARTCHAR 2052
ENCODING 8274
SWIDTH 617 0
DWIDTH 6 0
BBX 6 8 0 -1
BITMAP
0C
48
10
10
20
20
48
C8
ENDCHAR
STARTCHAR 2070
ENCODING 8304
SWIDTH 617 0
DWIDTH 6 0
BBX 2 4 2 4
BITMAP
C0
C0
C0
C0
ENDCHAR
STARTCHAR 2074
ENCODING 8308
SWIDTH 617 0
DWIDTH 6 0
BBX 3 4 1 4
BITMAP
40
60
E0
20
ENDCHAR
STARTCHAR 2075
ENCODING 8309
SWIDTH 617 0
DWIDTH 6 0
BBX 3 4 1 4
BITMAP
60
40
A0
60
ENDCHAR
STARTCHAR 2076
ENCODING 8310
SWIDTH 617 0
DWIDTH 6 0
BBX 3 4 1 4
BITMAP
60
80
E0
60
ENDCHAR
STARTCHAR 2077
ENCODING 8311
SWIDTH 617 0
DWIDTH 6 0
BBX 2 4 2 4
BITMAP
C0
40
80
80
ENDCHAR
STARTCHAR 2078
ENCODING 8312
SWIDTH 617 0
DWIDTH 6 0
BBX 2 4 2 4
BITMAP
C0
C0
C0
C0
ENDCHAR
STARTCHAR 2079
ENCODING 8313
SWIDTH 617 0
DWIDTH 6 0
BBX 3 4 1 4
BITMAP
60
A0
60
E0
ENDCHAR
STARTCHAR 207F
ENCODING 8319
SWIDTH 617 0
DWIDTH 6 0
BBX 2 3 2 4
BITMAP
C0
C0
C0
ENDCHAR
STARTCHAR 2080
ENCODING 8320
SWIDTH 617 0
DWIDTH 6 0
BBX 2 4 2 -2
BITMAP
C0
C0
C0
C0
ENDCHAR
STARTCHAR 2081
ENCODING 8321
SWIDTH 617 0
DWIDTH 6 0
BBX 2 4 2 -2
BITMAP
80
80
80
C0
ENDCHAR
STARTCHAR 2082
ENCODING 8322
SWIDTH 617 0
DWIDTH 6 0
BBX 2 4 2 -2
BITMAP
C0
C0
C0
C0
ENDCHAR
STARTCHAR 2083
ENCODING 8323
SWIDTH 617 0
DWIDTH 6 0
BBX 3 4 1 -2
BITMAP
60
20
E0
60
ENDCHAR
STARTCHAR 2084
ENCODING 8324
SWIDTH 617 0
DWIDTH 6 0
BBX 3 4 1 -2
BITMAP
40
60
E0
20
ENDCHAR
STARTCHAR 2085
ENCODING 8325
SWIDTH 617 0
DWIDTH 6 0
BBX 3 4 1 -2
BITMAP
60
40
A0
60
ENDCHAR
STARTCHAR 2086
ENCODING 8326
SWIDTH 617 0
DWIDTH 6 0
BBX 3 4 1 -2
BITMAP
60
80
E0
60
ENDCHAR
STARTCHAR 2087
ENCODING 8327
SWIDTH 617 0
DWIDTH 6 0
BBX 2 4 2 -2
BITMAP
C0
40
80
80
ENDCHAR
STARTCHAR 2088
ENCODING 8328
SWIDTH 617 0
DWIDTH 6 0
BBX 2 4 2 -2
BITMAP
C0
C0
C0
C0
ENDCHAR
STARTCHAR 2089
ENCODING 8329
SWIDTH 617 0
DWIDTH 6 0
BBX 3 4 1 -2
BITMAP
60
A0
60
E0
ENDCHAR
STARTCHAR 2099
ENCODING 8345
SWIDTH 617 0
DWIDTH 6 0
BBX 2 3 2 -1
BITMAP
C0
C0
C0
ENDCHAR
STARTCHAR 20A1
ENCODING 8353
SWIDTH 617 0
DWIDTH 6 0
BBX 6 9 0 -1
BITMAP
14
3C
78
58
E8
F0
70
78
60
ENDCHAR
STARTCHAR 20A3
ENCODING 8355
SWIDTH 617 0
DWIDTH 6 0
BBX 5 7 0 0
BITMAP
78
78
40
78
40
F0
40
ENDCHAR
STARTCHAR 20A4
ENCODING 8356
SWIDTH 617 0
DWIDTH 6 0
BBX 6 7 0 0
BITMAP
38
6C
60
F0
F0
40
F8
ENDCHAR
STARTCHAR 20A6
ENCODING 8358
SWIDTH 617 0
DWIDTH 6 0
BBX 6 7 0 0
BITMAP
48
68
FC
78
FC
58
48
ENDCHAR
STARTCHAR 20A7
ENCODING 8359
SWIDTH 617 0
DWIDTH 6 0
BBX 6 7 0 0
BITMAP
70
58
FC
78
70
40
40
ENDCHAR
STARTCHAR 20A9
ENCODING 8361
SWIDTH 617 0
DWIDTH 6 0
BBX 6 7 0 0
BITMAP
B4
BC
FC
F8
FC
78
58
ENDCHAR
STARTCHAR 20AB
ENCODING 8363
SWIDTH 617 0
DWIDTH 6 0
BBX 6 9 0 -2
BITMAP
3C
3C
78
C8
C8
C8
78
00
78
ENDCHAR
STARTCHAR 20AC
ENCODING 8364
SWIDTH 617 0
DWIDTH 6 0
BBX 5 7 0 0
BITMAP
18
38
60
F0
F0
60
38
ENDCHAR
STARTCHAR 20AD
ENCODING 8365
SWIDTH 617 0
DWIDTH 6 0
BBX 6 7 0 0
BITMAP
4C
58
50
FC
50
58
4C
ENDCHAR
STARTCHAR 20B1
ENCODING 8369
SWIDTH 617 0
DWIDTH 6 0
BBX 6 7 0 0
BITMAP
78
DC
4C
FC
70
40
40
ENDCHAR
STARTCHAR 20B2
ENCODING 8370
SWIDTH 617 0
DWIDTH 6 0
BBX 6 8 0 -1
BITMAP
30
78
EC
DC
EC
EC
74
20
ENDCHAR
STARTCHAR 20B5
ENCODING 8373
SWIDTH 617 0
DWIDTH 6 0
BBX 5 9 0 -1
BITMAP
10
30
78
D8
E0
E8
E8
78
40
ENDCHAR
STARTCHAR 20B9
ENCODING 8377
SWIDTH 617 0
DWIDTH 6 0
BBX 6 7 0 0
BITMAP
FC
30
F8
F0
40
60
38
ENDCHAR
STARTCHAR 20BA
ENCODING 8378
SWIDTH 617 0
DWIDTH 6 0
BBX 5 7 0 0
BITMAP
40
50
60
F0
C8
C8
78
ENDCHAR
STARTCHAR 20BC
ENCODING 8380
SWIDTH 617 0
DWIDTH 6 0
BBX 6 7 0 0
BITMAP
70
F8
EC
EC
EC
EC
CC
ENDCHAR
STARTCHAR 20BD
ENCODING 8381
SWIDTH 617 0
DWIDTH 6 0
BBX 6 7 0 0
BITMAP
70
78
4C
F8
40
E0
40
ENDCHAR
STARTCHAR 2113
ENCODING 8467
SWIDTH 617 0
DWIDTH 6 0
BBX 5 7 0 0
BITMAP
30
68
68
68
F0
60
70
ENDCHAR
STARTCHAR 2116
ENCODING 8470
SWIDTH 617 0
DWIDTH 6 0
BBX 6 7 0 0
BITMAP
E0
E0
E8
F4
B4
A8
AC
ENDCHAR
STARTCHAR 2117
ENCODING 8471
SWIDTH 617 0
DWIDTH 6 0
BBX 6 7 0 0
BITMAP
70
88
BC
BC
A4
A4
78
ENDCHAR
STARTCHAR 2122
ENCODING 8482
SWIDTH 617 0
DWIDTH 6 0
BBX 6 4 0 3
BITMAP
FC
7C
7C
7C
ENDCHAR
STARTCHAR 2126
ENCODING 8486
SWIDTH 617 0
DWIDTH 6 0
BBX 6 7 0 0
BITMAP
30
F8
CC
CC
CC
48
FC
ENDCHAR
STARTCHAR 212E
ENCODING 8494
SWIDTH 617 0
DWIDTH 6 0
BBX 6 7 0 0
BITMAP
30
48
CC
FC
C0
CC
78
ENDCHAR
STARTCHAR 2202
ENCODING 8706
SWIDTH 617 0
DWIDTH 6 0
BBX 5 7 0 0
BITMAP
30
18
08
78
C8
C8
78
ENDCHAR
STARTCHAR 2205
ENCODING 8709
SWIDTH 617 0
DWIDTH 6 0
BBX 5 5 0 1
BITMAP
38
48
98
68
F8
ENDCHAR
STARTCHAR 2206
ENCODING 8710
SWIDTH 617 0
DWIDTH 6 0
BBX 6 7 0 0
BITMAP
30
30
78
58
48
C8
FC
ENDCHAR
STARTCHAR 220F
ENCODING 8719
SWIDTH 617 0
DWIDTH 6 0
BBX 6 8 0 -1
BITMAP
FC
48
48
48
48
48
48
48
ENDCHAR
STARTCHAR 2211
ENCODING 8721
SWIDTH 617 0
DWIDTH 6 0
BBX 6 8 0 -1
BITMAP
F8
60
30
38
30
20
40
FC
ENDCHAR
STARTCHAR 2212
ENCODING 8722
SWIDTH 617 0
DWIDTH 6 0
BBX 5 1 0 2
BITMAP
F8
ENDCHAR
STARTCHAR 2215
ENCODING 8725
SWIDTH 617 0
DWIDTH 6 0
BBX 4 7 1 0
BITMAP
10
10
20
20
40
80
80
ENDCHAR
STARTCHAR 2219
ENCODING 8729
SWIDTH 617 0
DWIDTH 6 0
BBX 2 2 2 2
BITMAP
C0
C0
ENDCHAR
STARTCHAR 221A
ENCODING 8730
SWIDTH 617 0
DWIDTH 6 0
BBX 6 9 0 -1
BITMAP
0C
08
08
08
48
E8
70
30
30
ENDCHAR
STARTCHAR 221E
ENCODING 8734
SWIDTH 617 0
DWIDTH 6 0
BBX 6 4 0 1
BITMAP
48
B4
A4
D8
ENDCHAR
STARTCHAR 222B
ENCODING 8747
SWIDTH 617 0
DWIDTH 6 0
BBX 2 9 2 -3
BITMAP
C0
80
80
80
80
C0
C0
C0
C0
ENDCHAR
STARTCHAR 2248
ENCODING 8776
SWIDTH 617 0
DWIDTH 6 0
BBX 6 5 0 0
BITMAP
04
FC
00
FC
80
ENDCHAR
STARTCHAR 2260
ENCODING 8800
SWIDTH 617 0
DWIDTH 6 0
BBX 5 5 0 0
BITMAP
08
F8
20
F8
40
ENDCHAR
STARTCHAR 2264
ENCODING 8804
SWIDTH 617 0
DWIDTH 6 0
BBX 5 5 0 0
BITMAP
18
E0
78
08
F8
ENDCHAR
STARTCHAR 2265
ENCODING 8805
SWIDTH 617 0
DWIDTH 6 0
BBX 4 5 1 0
BITMAP
C0
30
F0
80
F0
ENDCHAR
STARTCHAR 25CA
ENCODING 9674
SWIDTH 617 0
DWIDTH 6 0
BBX 4 7 1 0
BITMAP
60
60
90
90
90
60
60
ENDCHAR
STARTCHAR 27E8
ENCODING 10216
SWIDTH 617 0
DWIDTH 6 0
BBX 3 6 1 0
BITMAP
20
20
40
C0
40
20
ENDCHAR
STARTCHAR 27E9
ENCODING 10217
SWIDTH 617 0
DWIDTH 6 0
BBX 3 6 1 0
BITMAP
C0
40
20
20
20
C0
ENDCHAR
STARTCHAR FB01
ENCODING 64257
SWIDTH 617 0
DWIDTH 6 0
BBX 5 7 0 0
BITMAP
78
40
F8
48
48
48
48
ENDCHAR
STARTCHAR FB02
ENCODING 64258
SWIDTH 617 0
DWIDTH 6 0
BBX 5 7 0 0
BITMAP
68
48
E8
48
48
48
48
ENDCHAR
STARTCHAR FEFF
ENCODING 65279
SWIDTH 0 0
DWIDTH 0 0
BBX 0 0 0 0
BITMAP
ENDCHAR
ENDFONT
